<svg xmlns="http://www.w3.org/2000/svg" xmlns:xlink="http://www.w3.org/1999/xlink" width="1440" height="108" viewBox="0 0 1440 108"><style>.st0{opacity:.2;fill:#fff}.st1{fill:#404040}.st2{fill:#d4d4d4}.st3{fill:#a2ddf4}.st4,.st5{fill:#404040}.st4{fill-rule:evenodd;clip-rule:evenodd;clip-path:url(#SVGID_2_)}.st5{clip-path:url(#SVGID_4_)}.st6{fill-rule:evenodd;clip-rule:evenodd;fill:#a4def4}</style><g id="Layer_1"><path class="st0" d="M1424 51h16v57H0V96c.8 0 1.7.1 2.5-.1 44.7-8.1 89.4-16.4 134.1-24.4 10.1-1.8 20.4-4.5 30.5-4 21.3 1.1 42.4 4.2 63.6 6.2 7.7.7 15.7 2 23.3.9 20.4-2.9 40.7-6.9 61-10.3 7.7-1.3 15.6-3.7 23.2-3 28.9 2.5 57.6 6.3 86.4 9.2 10.2 1 20.6 1.8 30.8 1.3 8.2-.5 16.3-3.3 24.4-4.9 5.6-1.1 9.7.9 12 6.3 1.7 4 4.8 5.6 9 5.8 23.8 1.2 47.5 3 71.3 3.7 91.3 2.4 182.6 4.4 273.9 6.5 2.5.1 5 .1 7.5-.2 23.6-3.1 47.2-6.5 70.8-9.4 26.8-3.3 53.5-7 80.4-9.2 36.3-3.1 72.8-5.4 109.2-7.4 46.2-2.6 92.5-5 138.8-6.7 55.3-2 110.6-3 165.9-4.5 1.8-.1 3.6-.5 5.4-.8z"/><path class="st1" d="M411.2 39.5c-8.1 2.2-12.8 10.4-10.7 18.5 2.2 8 10.5 12.8 18.5 10.7 8.1-2.2 12.8-10.4 10.7-18.5-2.2-8.1-10.4-12.9-18.5-10.7zm7.8 15.8l-1.8-1v-.4l1.9-.6h7.9c.1 1.3 0 2.5-.3 3.7l-7.7-1.7zm7.7 1.8c-.2.7-.5 1.5-.8 2.2l-6.5-3.8 7.3 1.6zm-4.9 6.9c-1 .7-2.1 1.2-3.4 1.6l-2.4-7.5v-2c.1-.1.2-.1.3-.2l1.4 1.3 4.1 6.8zm-3.7-6.6l5.5 5.1c-.5.5-1.1 1-1.8 1.5l-3.7-6.6zm-2.2.7V66c-1.3.1-2.5 0-3.7-.3l1.7-7.7 1-1.8h.4l.6 1.9zm-3.8 7.6c-.7-.2-1.5-.5-2.2-.8l3.8-6.5-1.6 7.3zm-8.6-8.5c-.2-.7-.3-1.5-.4-2.2h7.6l-7.2 2.2zm7.7-4.3l1.8 1v.4l-1.9.6h-7.9c-.1-1.3 0-2.5.3-3.7l7.7 1.7zm-7.7-1.8c.2-.7.5-1.5.8-2.2l6.5 3.8-7.3-1.6zm4.9-7c1-.7 2.1-1.2 3.4-1.6l2.4 7.5v2c-.1.1-.2.1-.3.2l-1.4-1.3-4.1-6.8zm3.7 6.6l-5.5-5.1c.5-.5 1.1-1 1.8-1.5l3.7 6.6zm2.2-.6v-7.9c1.3-.1 2.5 0 3.7.3l-1.7 7.7-1 1.8h-.4l-.6-1.9zm3.8-7.6c.7.2 1.5.5 2.2.8l-3.8 6.5 1.6-7.3zm-5 12.4h-1.6l1.5-.5v.2c0 .1.1.2.1.3zm4-1.6h1.6l-1.5.5v-.2c0-.2 0-.3-.1-.3zm0-.1c-.1-.1-.1-.2-.2-.3l1.3-1.4 6.9-4c.7 1 1.2 2.1 1.6 3.4l-7.5 2.4-2.1-.1zm-.3-.5l-.3-.3 1.4-.8-1.1 1.1zm-1.4-.8l.8-1.4-.3 1.5c-.2 0-.3-.1-.5-.1zm-.9.1c-.1 0-.2.1-.2.1v-1.6l.5 1.5c-.1-.1-.2 0-.3 0zm-.8.4l-.3.3-.8-1.4 1.1 1.1zm-.7 1.4l-1.4-.8 1.5.3c-.1.1-.1.3-.1.5zm-1.9 1.2h2c.1.1.1.2.2.3l-1.3 1.4-6.9 4c-.7-1-1.2-2.1-1.6-3.4l7.6-2.3zm2.3.4l.3.3-1.4.8 1.1-1.1zm1.4.8l-.8 1.4.3-1.5c.2.1.3.1.5.1zm.9 0c.1 0 .2 0 .2-.1v1.6l-.5-1.5h.3zm.8-.4l.3-.3.8 1.4-1.1-1.1zm.8-1.4l1.4.8-1.5-.3c0-.2 0-.3.1-.5zm2.2-1.2l7.2-2.3v.1c.2.7.3 1.5.4 2.2h-7.6zm5.5-5.9l-6.5 3.8 5.1-5.5c.5.5 1 1.1 1.4 1.7zm-1.6-1.8l-5.3 5.8-1.8 1c-.1-.1-.2-.1-.4-.2l.4-1.9 4-6.9c.2.1.5.2.7.4 1 .5 1.7 1.1 2.4 1.8zm-9.2-3.4v7.6l-2.3-7.2h.1c.7-.2 1.5-.3 2.2-.4zm-7.7 3.6l5.8 5.3 1 1.8c-.1.1-.1.2-.2.4l-1.9-.4-6.9-4c.1-.2.2-.5.4-.7.5-.9 1.1-1.7 1.8-2.4zm-1.3 15.2l6.5-3.8-5.1 5.5c-.5-.5-1-1.1-1.4-1.7zm1.6 1.8l5.3-5.8 1.8-1c.1.1.2.1.3.2l-.4 1.9-4 6.9c-.2-.1-.5-.2-.7-.4-.8-.5-1.6-1.1-2.3-1.8zM416 66v-7.6l2.3 7.2h-.1c-.7.3-1.4.4-2.2.4zm7.7-3.6l-5.8-5.3-1-1.8c.1-.1.1-.2.2-.4l1.9.4 6.9 4c-.1.2-.2.5-.4.7-.5.9-1.1 1.7-1.8 2.4zm40.5-39.8c-8.7 2.3-13.9 11.3-11.6 20.1 2.3 8.7 11.3 13.9 20.1 11.6 8.7-2.3 13.9-11.3 11.6-20.1-2.4-8.7-11.4-13.9-20.1-11.6zm8.5 17.2l-1.9-1.1v-.4l2-.6h8.6c.1 1.4 0 2.7-.4 4l-8.3-1.9zm8.3 1.9c-.2.8-.5 1.6-.9 2.3l-7.1-4 8 1.7zm-5.3 7.6c-1.1.7-2.3 1.3-3.7 1.7l-2.6-8.2v-2.2c.1-.1.3-.1.4-.2l1.6 1.4 4.3 7.5zm-4-7.2l6 5.5c-.6.6-1.2 1.1-1.9 1.6l-4.1-7.1zm-2.4.7v8.6c-1.4.1-2.7 0-4-.4l1.9-8.4 1.1-1.9h.4l.6 2.1zm-4.2 8.3c-.8-.2-1.6-.5-2.3-.9l4.1-7.1-1.8 8zm-9.3-9.3c-.2-.8-.3-1.6-.4-2.4h8.2l-7.8 2.4c0 .1 0 .1 0 0zm8.3-4.6l1.9 1.1v.4l-2 .6h-8.6c-.1-1.4 0-2.7.4-4l8.3 1.9zm-8.3-2c.2-.8.5-1.6.9-2.3l7.1 4.1-8-1.8zm5.3-7.6c1.1-.7 2.3-1.3 3.7-1.7l2.6 8.2v2.2c-.1.1-.3.1-.4.2l-1.6-1.4-4.3-7.5zm4 7.2l-6-5.5c.6-.6 1.2-1.1 1.9-1.6l4.1 7.1zm2.4-.7v-8.6c1.4-.1 2.7 0 4 .4l-1.9 8.4-1.1 1.9h-.4l-.6-2.1zm4.2-8.2c.8.2 1.6.5 2.3.9l-4.1 7.1 1.8-8zm-5.5 13.4h-1.7l1.6-.5c0 .1 0 .2.1.2-.1.2 0 .2 0 .3zm4.4-1.7h1.7l-1.6.5c0-.1 0-.2-.1-.2.1-.1 0-.2 0-.3zm-.1-.1c-.1-.1-.1-.3-.2-.4l1.4-1.6 7.5-4.3c.7 1.1 1.3 2.3 1.7 3.7l-8.2 2.6h-2.2zm-.3-.5c-.1-.1-.2-.3-.4-.4l1.5-.9-1.1 1.3zm-1.5-.9l.9-1.5-.4 1.6c-.1 0-.3-.1-.5-.1zm-.9.1c-.1 0-.2.1-.3.1v-1.7l.5 1.6c-.1-.1-.1 0-.2 0zm-.9.4c-.1.1-.3.2-.4.4l-.9-1.5 1.3 1.1zm-.8 1.5l-1.5-.9 1.6.4c-.1.2-.1.3-.1.5zm-2.1 1.4h2.2c.1.1.1.3.2.4l-1.4 1.6-7.5 4.3c-.7-1.1-1.3-2.3-1.7-3.7l8.2-2.6zm2.6.4c.1.1.2.3.4.4l-1.5.9 1.1-1.3zm1.5.9l-.9 1.5.4-1.6c.1 0 .3.1.5.1zm.9-.1c.1 0 .2-.1.3-.1v1.7l-.5-1.6c0 .1.1.1.2 0zm.9-.4c.1-.1.3-.2.4-.4l.9 1.5-1.3-1.1zm.8-1.5l1.5.9-1.6-.4c.1-.2.1-.3.1-.5zm2.5-1.3L481 35v.1c.2.8.3 1.6.4 2.4h-8.2zm5.9-6.4l-7.1 4.1 5.5-6c.6.6 1.2 1.2 1.6 1.9zm-1.7-2l-5.8 6.3-1.9 1.1c-.1-.1-.2-.2-.4-.2l.5-2.1 4.3-7.5c.3.1.5.3.8.4.9.6 1.8 1.3 2.5 2zm-10-3.6v8.2l-2.5-7.8h.1c.8-.2 1.6-.4 2.4-.4zm-8.4 3.9l6.3 5.8 1.1 1.9c-.1.1-.2.2-.2.4l-2.1-.5-7.5-4.3c.1-.3.3-.5.4-.8.6-.9 1.3-1.7 2-2.5zm-1.3 16.4l7.1-4.1-5.5 6c-.6-.5-1.2-1.2-1.6-1.9zm1.6 2l5.8-6.3 1.9-1.1c.1.1.2.2.4.2l-.5 2.1-4.3 7.5c-.3-.1-.5-.3-.8-.4-.8-.6-1.7-1.2-2.5-2zm10.1 3.6v-8.2l2.5 7.8h-.1c-.8.2-1.6.4-2.4.4zm8.4-3.9l-6.3-5.8-1.1-1.9c.1-.1.2-.2.2-.4l2.1.5 7.5 4.3c-.1.3-.3.5-.4.8-.7.9-1.3 1.7-2 2.5z"/><path class="st2" d="M454.4 15.9c.1.2-.1 1.1-.8 1.5-.7.4-1.6.2-1.7 0-.1-.2.3-.7 1-1.1.7-.5 1.4-.6 1.5-.4z"/><path class="st1" d="M461.7 47.9c-.1-.1-.3-.1-.4.1l-.2.2c0 .1-.1.1 0 .2l-.5.7.3.2.5-.7c.1 0 .1 0 .2-.1l.2-.2c.1-.2 0-.3-.1-.4zm-55.4-.1c.1-.1.1-.3-.1-.3l-.2-.2c-.1 0-.1-.1-.2 0l-.6-.5-.2.3.6.5c0 .1 0 .1.1.2l.2.2c.2 0 .3-.1.4-.2z"/><path class="st3" d="M453 13.7c-.2.2-.2.2-.3.2-.1-.1-.7 0-1.1.3-.4.3-.8.6-.7.8 0 0-.5.4-.2.8s.5.7.5.7.2.1.7 0c.4-.1.3.2.3.2l1.8-.7s.1-.2-.2-.3c-.3-.2 0-.3.1-.4.1 0 .6-.1.9.1l-1.8-1.7z"/><path class="st3" d="M454 15.2s.8.1 1.4.5l.5-.3-.1-.4h.2l.3.3.2-.2v-.2l.2-.2-.4-.5-.1-.5-.9-1.2s-.9.1-2.4 1.4"/><path class="st3" d="M452.3 7.3l.1-.2c-.2-.1-.6-.7-.8-1-.1-.1-.2-.1-.3-.1 0 0 .2 0 .4-.1.7-.2-.4-.9-.4-.9-.9-.5-1.3-1.4-1.3-1.4v-.7c-.2-.8-1-1.2-1.8-1-.5.1-.8.5-1 .9-.2-.1-.5-.1-.7 0-.6.2-1 .8-.8 1.4.2.6.8 1 1.4.8.2-.1.4-.2.5-.3.4.4 1.6.3 1.6.3l5 8.4 1.2-.6-3.1-5.5zm-4.8 34l-2.5.7v-.1c-.3-1-2.5.3-3.8.8s-5.9 2-5.9 2c-1.9.3-2.4 1.9-1 2.2 1.4.3 5.1-1.8 7.2-2.6 0 .2 0 .2.2.2l5-1.3c.2 0 .4-.2.4-.4l.5-1.3c.1-.1 0-.2-.1-.2zm-.9 1.7c-.3.1-.6-.1-.6-.4-.1-.3.1-.6.4-.6.3-.1.6.1.6.4 0 .2-.2.5-.4.6z"/><path class="st3" d="M469.2 37.4c-.7-.2-1.7-.5-2.3-.7l-9-14.5c.1-.2.2-.3.1-.4 0-.1-.2-.1-.4-.2l-3.5-5.5-2 1.3.3.5-25 16.2-1.7-2.4c.1-.1.1-.2.2-.4.9-1.5 2.4-2.8 3.1-3.5.7-.7.4-.7 0-.9-.4-.2-.5-.3-1.1-.2-.6.2-1.5 1.1-2.8 2.5-1.3 1.3-3.9 3.3-3.9 3.3-2.8 1.7-2.2 2.1-2.2 2.1s-.1 1.1 2.6.4c1.6-.4 2.5-1.1 3.1-1.9l1.3 1.8-.3.2c-.2.1-.3.4-.2.6.1.2.4.2.6.1l.2-.1L414 53.4s-.5.5-.4.7c.1.2.2.4.4.3.2-.1.2.2.2.3 0 .1.1.5.1.5s-.7.4-.1.5c.6.1 1.6-.2 2.2-.6l.3-.3 19.3-8.3-.2-.4 19.7-23.6.2.3c-.1.2-.1.4 0 .5.1.1.3.1.6 0l9.9 15.2s.3 1.1 1.5 1.1 1-.3 1.3-.2c.3.1.8-.2.9-.5.1-.4.3-1.2-.7-1.5zm-53.3 16.1c0-.1-.1-.2-.1-.3l11.5-16.5 6.6 9-18 7.8zm18.8-9.5l-6.1-8.4 24.9-16.1.6.9L434.7 44z"/><path class="st3" d="M438.5 44.9c0-.1-.4-.1-.4-.2s.2-.4.1-.5c-.1-.1-.4-.1-.4-.2-.1-.1.1-.4 0-.5-.1-.1-.4 0-.5 0-.1-.1 0-.4-.1-.5-.1-.1-.4.1-.5.1-.1-.1-.1-.4-.2-.4s-.3.2-.4.2c-.1 0-.2-.4-.3-.4-.1 0-.3.3-.4.3-.1 0-.2-.3-.4-.3-.1 0-.2.3-.3.3-.1 0-.3-.3-.4-.2-.1 0-.1.4-.3.4-.1 0-.4-.2-.5-.1-.1.1-.1.4-.2.4-.1.1-.4-.1-.5 0-.1.1 0 .4 0 .5-.1.1-.4 0-.5.1-.1.1.1.4.1.5-.1.1-.4.1-.4.2s.2.3.2.4c0 .1-.4.2-.4.3 0 .1.3.3.3.4 0 .1-.3.2-.3.4 0 .1.3.2.3.3 0 .1-.3.3-.2.4 0 .1.4.1.4.3 0 .1-.2.4-.1.5.1.1.4.1.4.2.1.1-.1.4 0 .5.1.1.4 0 .5.1.1.1 0 .4.1.5.1.1.4-.1.5-.1.1.1.1.4.2.4s.3-.2.4-.2c.1 0 .2.4.3.4.1 0 .3-.3.4-.3.1 0 .2.3.4.3.1 0 .2-.3.3-.3.1 0 .3.3.4.2.1 0 .1-.4.2-.4s.4.2.5.1c.1-.1.1-.4.2-.4.1-.1.4.1.5 0 .1-.1 0-.4.1-.5.1-.1.4 0 .5-.1.1-.1-.1-.4-.1-.5.1-.1.4-.1.4-.2s-.2-.3-.2-.4c0-.1.4-.2.4-.3 0-.1-.3-.3-.3-.4 0-.1.3-.2.3-.4 0-.1-.3-.2-.3-.3-.1-.3.2-.5.2-.6zm-4-1.9c.5-.1.9-.2 1 0 0 .1-.3.4-.8.6-.5.1-1 0-1-.1-.1-.1.3-.4.8-.5zm-2.1 2.6c0-.5.1-.9.3-.9.1 0 .3.4.3 1 0 .5-.3.9-.4.9-.2 0-.3-.5-.2-1zm.4 1.7c-.2-.3-.1-.8.3-1 .4-.2.9-.2 1.1.2.2.3.1.8-.3 1-.4.2-.8.1-1.1-.2zm2.3 1.3c0 .1-.5 0-1-.1-.5-.2-.9-.4-.8-.5 0-.1.5-.2 1 0 .6.1.9.5.8.6zm-1.9-3.6c-.3-.3-.4-.8-.2-1.1.2-.3.7-.3 1.1 0s.4.8.2 1.1c-.3.3-.8.3-1.1 0zm2.8 3.5c-.4.1-.8-.2-.9-.6-.1-.4.1-.9.5-1 .4-.1.8.2.9.6s-.2.9-.5 1zm-.3-3.9c-.4-.1-.5-.6-.4-1 .2-.4.6-.6 1-.5.4.1.5.6.4 1-.3.4-.7.7-1 .5zm1.7 3c-.3.4-.7.7-.8.6-.1-.1 0-.5.3-.9s.8-.6.9-.5c.1 0-.1.4-.4.8zm.7-1.7c0 .4-.4.7-.8.7s-.8-.4-.8-.8.4-.7.8-.7c.4.1.8.4.8.8zm-.2-.8c-.1.1-.5-.2-.8-.6-.3-.4-.3-.9-.2-1 .1-.1.4.2.7.7.3.5.4.9.3.9z"/><path class="st3" d="M417.7 51.9c.2-.1.1-.2.3-.3.2-.1.2 0 .4-.1.1-.1.1-.2.2-.3.1-.1.2 0 .3-.1.2-.1.1-.2.3-.3.2-.1.2 0 .4-.1.1-.1.1-.2.2-.3.1-.1.2 0 .3-.1.2-.1.1-.2.3-.3.2-.1.2 0 .4-.1s.1-.2.2-.3c.1-.1.2 0 .3-.1.2-.1.1-.2.3-.3.2-.1.2 0 .4-.1.1-.1.1-.2.2-.3.1-.1.2 0 .3-.1.2-.1.1-.2.3-.3.2-.1.2 0 .4-.1.1-.1.1-.2.2-.3l-.1-.2.1.2c.1-.1.2 0 .3-.1.2-.1.1-.2.3-.3.2-.1.2 0 .4-.1.1-.1.1-.2.2-.3l-.2-.3c-.1.1-.2 0-.4.1s-.1.2-.3.3c-.2.1-.2 0-.4.1-.1.1-.1.2-.2.3-.1.1-.2 0-.4.1s-.1.2-.3.3c-.2.1-.2 0-.4.1-.1.1-.1.2-.2.3-.1.1-.2 0-.3.1-.2.1-.1.2-.3.3-.2.1-.2 0-.4.1-.1.1-.1.2-.2.3-.1.1-.2 0-.4.1s-.1.2-.3.3c-.2.1-.2 0-.4.1-.1.1-.1.2-.2.3l.1.2-.1-.2c-.1.1-.2 0-.4.1s-.1.2-.3.3c-.2.1-.2 0-.4.1-.1.1-.1.2-.2.3l.1.2-.1-.2c-.1.1-.2 0-.4.1s-.1.2-.3.3c-.2.1-.2 0-.4.1-.1.1-.1.2-.2.3l.2.3c.6-.1.7-.1.8-.1zm8.4-4.6c.2-.1.1-.2.3-.3.2-.1.2 0 .4-.1.1-.1.1-.2.2-.3.1-.1.2 0 .3-.1.2-.1.1-.2.3-.3.2-.1.2 0 .4-.1.1-.1.1-.2.2-.3.1-.1.2 0 .3-.1.2-.1.1-.2.3-.3.2-.1.2 0 .4-.1.1-.1.1-.2.2-.3.1-.1.2 0 .3-.1.2-.1.1-.2.3-.3.2-.1.2 0 .4-.1.1-.1.1-.2.2-.3.1-.1.2 0 .3-.1.2-.1.1-.2.3-.3.2-.1.2 0 .4-.1s.1-.2.2-.3l-.1-.2.1.2c.1-.1.2 0 .3-.1.2-.1.1-.2.3-.3.2-.1.2 0 .4-.1.1-.1.1-.2.2-.2.1-.1.2 0 .3 0 .2-.1.1-.2.3-.2.2-.1.2 0 .4 0 .2-.1.1-.1.3-.2.2 0 .2.1.3 0 .2 0 .1-.1.3-.2.2 0 .2.1.3.1.2 0 .2-.1.3-.1v-.4c-.2 0-.2-.1-.4-.1s-.2.1-.4.1-.2-.1-.4 0c-.2 0-.2.1-.3.2v.2-.2c-.2 0-.2-.1-.4 0s-.1.2-.3.2c-.2.1-.2 0-.4 0-.2.1-.1.2-.3.2-.2.1-.2 0-.4.1s-.1.2-.3.3c-.2.1-.2 0-.4.1-.1.1-.1.2-.2.3-.1.1-.2 0-.4.1s-.1.2-.3.3c-.2.1-.2 0-.4.1-.1.1-.1.2-.2.3-.1.1-.2 0-.4.1s-.1.2-.3.3c-.2.1-.2 0-.4.1-.1.1-.1.2-.2.3-.1.1-.2 0-.3.1-.2.1-.1.2-.3.3-.2.1-.2 0-.4.1-.1.1-.1.2-.2.3l.1.2-.1-.2c-.1.1-.2 0-.4.1s-.1.2-.3.3c-.2.1-.2 0-.4.1-.1.1-.1.2-.2.3l.1.2-.1-.2c-.1.1-.2 0-.4.1s-.1.2-.3.3c-.2.1-.2 0-.4.1-.1.1-.1.2-.2.3l.2.3c.8-.1.9 0 1-.1zm9.7-4.4c.2 0 .2-.1.3 0 .2 0 .1.2.2.2.1.1.2 0 .3.1l.2-.3c-.1-.1-.1-.2-.3-.3-.2-.1-.2 0-.4-.1-.2 0-.2-.2-.3-.2-.2 0-.2.1-.4.1v.4c.3 0 .3.1.4.1zm-10.9 5c.2-.1.1-.2.3-.3.2-.1.2 0 .4-.1.1-.1.1-.2.2-.3l-.2-.3c-.1.1-.2 0-.4.1s-.1.2-.3.3c-.2.1-.2 0-.4.1-.1.1-.1.2-.2.3l.2.3c.2-.1.3 0 .4-.1zm-8.4 4.6c.2-.1.1-.2.3-.3.2-.1.2 0 .4-.1.1-.1.1-.2.2-.3l-.2-.3c-.1.1-.2 0-.4.1s-.1.2-.3.3c-.2.1-.2 0-.4.1-.1.1-.1.2-.2.3l.2.3c.2-.1.3 0 .4-.1zm21.9-7.2c0-.2.1-.2 0-.4s-.2-.1-.2-.3c-.1-.2 0-.2-.1-.4s-.2-.1-.3-.3c-.1-.1 0-.2-.1-.4s-.2-.1-.3-.2c-.1-.1 0-.2-.2-.3-.1-.1-.2-.1-.3-.2l-.2.3c.1.1 0 .2.2.3.1.1.2.1.3.2.1.1 0 .2.1.3.1.1.2.1.3.2.1.1 0 .2.1.3.1.1.2.1.2.3.1.2 0 .2 0 .3 0 .2.1.1.2.3h.2-.2c0 .2-.1.2-.1.3 0 .2.1.2.1.3 0 .2-.1.2-.1.3 0 .1.1.2 0 .3l-.2.2c-.1.1 0 .2-.1.3-.1.1-.2.1-.3.2-.1.1 0 .2-.1.3-.1.1-.2 0-.3.1-.1.1-.1.2-.2.3-.1.1-.2 0-.3.1-.1.1-.1.2-.2.3l.1.2-.1-.2h-.3c-.2.1-.1.2-.3.2-.2.1-.2 0-.4 0-.2.1-.1.2-.3.2-.2 0-.2-.1-.3 0-.2.1-.1.2-.3.2-.2.1-.2-.1-.4 0s-.1.2-.3.2c-.2 0-.2-.1-.3 0-.2.1-.1.2-.3.2-.2.1-.2-.1-.4 0s-.1.2-.3.2c-.2 0-.2-.1-.3 0-.2.1-.1.2-.3.2-.2.1-.2-.1-.4 0s-.1.2-.3.2c-.2 0-.2-.1-.3 0-.2.1-.1.2-.3.2-.2.1-.2-.1-.4 0-.2 0-.1.1-.3.2-.2 0-.2-.1-.3 0-.2.1-.1.2-.3.2-.2.1-.2-.1-.4 0-.2 0-.1.1-.3.2-.2 0-.2-.1-.3 0-.2.1-.1.2-.3.2-.2.1-.2-.1-.4 0-.2 0-.1.2-.3.2-.2 0-.2-.1-.3 0-.2.1-.1.2-.3.2-.2.1-.2-.1-.4 0s-.1.1-.3.2c-.2 0-.2-.1-.3 0-.2.1-.1.2-.3.2-.2.1-.2-.1-.4 0s-.1.2-.3.2c-.2 0-.2-.1-.3 0-.2.1-.1.2-.3.2-.2.1-.2-.1-.4 0s-.1.1-.3.2c-.2 0-.2-.1-.3 0-.2.1-.1.2-.3.2-.2.1-.2-.1-.4 0s-.1.1-.3.2c-.2 0-.2-.1-.3 0-.2.1-.1.2-.3.2-.2.1-.2-.1-.4 0s-.1.2-.3.2c-.2 0-.2-.1-.3 0-.2.1-.1.2-.3.2-.2.1-.2-.1-.4 0-.2 0-.1.1-.3.2l.1.3c.2 0 .2.1.3 0 .2-.1.1-.2.3-.2.2-.1.2.1.4 0 .2 0 .1-.1.3-.2l-.1-.2.1.2c.2 0 .2.1.3 0 .2-.1.1-.2.3-.2.2-.1.2.1.4 0 .2 0 .1-.1.3-.2l-.1-.2.1.2c.2 0 .2.1.3 0 .2-.1.1-.2.3-.2.2-.1.2.1.4 0s.1-.1.3-.2l-.1-.2.1.2c.2 0 .2.1.3 0 .2-.1.1-.2.3-.2.2-.1.2.1.4 0 .2 0 .1-.1.3-.2l-.1-.2.1.2c.2 0 .2.1.3 0 .2-.1.1-.2.3-.2.2-.1.2.1.4 0 .2 0 .1-.1.3-.2l-.1-.2.1.2c.2 0 .2.1.3 0 .2-.1.1-.2.3-.2.2-.1.2.1.4 0 .2 0 .1-.1.3-.2l-.1-.2.1.2c.2 0 .2.1.3 0 .2-.1.1-.2.3-.2.2-.1.2.1.4 0s.1-.1.3-.2c.2 0 .2.1.3 0 .2-.1.1-.2.3-.2.2-.1.2.1.4 0 .2 0 .1-.1.3-.2l-.1-.2.1.2c.2 0 .2.1.3 0 .2-.1.1-.2.3-.2.2-.1.2.1.4 0s.1-.1.3-.2l-.1-.2.1.2c.2 0 .2.1.3 0 .2-.1.1-.2.3-.2.2-.1.2.1.4 0s.1-.1.3-.2l-.1-.2.1.2c.2 0 .2.1.3 0 .2-.1.1-.2.3-.2.2-.1.2.1.4 0s.1-.1.3-.2l-.1-.2.1.2c.2 0 .2.1.3 0 .2-.1.1-.2.3-.2.2-.1.2.1.4 0s.1-.1.3-.2l-.1-.2.1.2c.2 0 .2.1.3 0 .2-.1.1-.2.3-.2.2-.1.2 0 .4 0 .2-.1.1-.2.3-.2.2-.1.2 0 .4-.1s.1-.2.3-.3c.1-.1.2 0 .4-.1.1-.1.1-.2.2-.3l-.1-.1.1.1c.1-.1.2 0 .3-.2.1-.2 0-.2.1-.4s.2-.1.3-.3c.1-.2 0-.2 0-.4.1-.2.2-.1.2-.3 0-.2-.1-.2-.1-.4s.1-.2.1-.4c-.1.1-.2.1-.2-.1zm-19 8.4c-.2.1-.1.2-.3.2-.2.1-.2-.1-.4 0-.2 0-.1.1-.3.2-.2 0-.2-.1-.3 0-.2.1-.1.2-.3.2-.2.1-.2-.1-.4 0s-.1.1-.3.2c-.2 0-.2-.1-.3 0-.2.1-.1.2-.3.2-.2.1-.2-.1-.4 0s-.1.1-.3.2l.1.3c.2 0 .2.1.3 0 .2-.1.1-.2.3-.2.2-.1.2.1.4 0 .2 0 .1-.1.3-.2l-.1-.2.1.2c.2 0 .2.1.3 0 .2-.1.1-.2.3-.2.2-.1.2.1.4 0 .2 0 .1-.1.3-.2l-.1-.2.1.2c.2 0 .2.1.3 0 .2-.1.1-.2.3-.2.2-.1.2.1.4 0 .2 0 .1-.1.3-.2l-.1-.3c-.1.1-.1 0-.3 0zm-3.5-.9c.1-.1.1-.2.2-.3l-.2-.3c-.1.1-.2 0-.4.1s-.1.2-.3.3c-.2.1-.2 0-.4.1-.1.1-.1.2-.2.3l.2.3c.1-.1.2 0 .3-.1.2-.1.1-.2.3-.3.3-.1.4 0 .5-.1z"/><path class="st3" d="M422.8 49.3l2.5-.7v.1c.3 1 2.5-.3 3.8-.8 1.3-.5 5.9-2 5.9-2 1.9-.3 2.4-1.9 1-2.2-1.4-.3-5.1 1.8-7.2 2.6 0-.2 0-.2-.2-.2l-5 1.3c-.2 0-.4.2-.4.4l-.5 1.3c-.2.1-.1.2.1.2zm.9-1.7c.3-.1.6.1.6.4.1.3-.1.6-.4.6-.3.1-.6-.1-.6-.4 0-.2.1-.5.4-.6z"/><defs><path id="SVGID_1_" d="M1016.9 36h2.5v33.3h-2.5z"/></defs><use xlink:href="#SVGID_1_" overflow="visible" fill="#404040"/><clipPath id="SVGID_2_"><use xlink:href="#SVGID_1_" overflow="visible"/></clipPath><path class="st4" d="M1018.1 71.2c-.7 0-1.2-1.1-1.2-2.5V38.5c0-1.4.6-2.5 1.2-2.5s1.2 1.1 1.2 2.5v30.2c.1 1.4-.5 2.5-1.2 2.5"/><defs><path id="SVGID_3_" d="M995.2 31.3c-.6 0-1 .5-1 1 0 .6.5 1 1 1h4.2c.6 0 1-.5 1-1 0-.6-.5-1-1-1h-4.2z"/></defs><use xlink:href="#SVGID_3_" overflow="visible" fill="#404040"/><clipPath id="SVGID_4_"><use xlink:href="#SVGID_3_" overflow="visible"/></clipPath><path class="st5" d="M983.8 20.9h27.1v22.8h-27.1z"/><path class="st6" d="M1032.7 10.6h-35.4c-4 0-7.3 3.3-7.3 7.2v18.6c0 .6.5 1 1 1h47.9c.6 0 1-.5 1-1V17.8c.1-4-3.2-7.2-7.2-7.2zm-40.6 7.2c0-2.9 2.3-5.2 5.2-5.2 2.9 0 5.2 2.3 5.2 5.2v17.6h-10.4V17.8zm45.8 17.6h-33.3V17.8c0-2-.8-3.9-2.2-5.2h30.3c2.9 0 5.2 2.3 5.2 5.2v17.6z"/><path class="st6" d="M1005.6.2h-6.2c-.6 0-1 .5-1 1v10.3c0 .6.5 1 1 1s1-.5 1-1V6.4h5.2c.6 0 1-.5 1-1V1.3c.1-.6-.4-1.1-1-1.1m-1 4.2h-4.2V2.3h4.2v2.1z"/></g></svg>