<svg xmlns="http://www.w3.org/2000/svg" width="1440" height="139" viewBox="0 0 1440 139"><style>.st0{opacity:.3}.st1{fill:#fff}</style><g class="st0" id="Layer_1"><path class="st1" d="M491.3 53.4l-.5-.9s1.2-.7 3.6-1.8l.4.9c-2.3 1.1-3.5 1.7-3.5 1.8zm7-3.6l-.4-.9c2.3-1.1 4.7-2.2 7.2-3.4l.4.9c-2.5 1.2-4.9 2.3-7.2 3.4zm457.2-1.6c-2.4-1-4.9-2.1-7.3-3.1l.4-.9c2.4 1 4.9 2 7.3 3.1l-.4.9zm-446.4-3.4l-.4-.9c2.4-1 4.8-2.1 7.3-3.1l.4.9c-2.5 1.1-4.9 2.1-7.3 3.1zm435.5-1.1c-2.5-1-4.9-2-7.4-2.9l.4-.9c2.5 1 4.9 1.9 7.4 2.9l-.4.9zm-424.5-3.5l-.4-.9c2.4-1 4.9-2 7.4-2.9l.4.9c-2.6 1-5 2-7.4 2.9zm413.4-.8c-2.5-.9-4.9-1.9-7.4-2.8l.3-.9c2.5.9 4.9 1.8 7.4 2.8l-.3.9zm-402.4-3.5l-.4-.9c2.4-.9 4.9-1.8 7.4-2.7l.3.9c-2.4.9-4.9 1.8-7.3 2.7zm391.3-.7c-2.5-.9-5-1.8-7.5-2.6l.3-.9c2.5.9 5 1.7 7.5 2.6l-.3.9zm-380.1-3.3l-.3-.9c2.4-.8 4.9-1.7 7.5-2.5l.3.9c-2.6.8-5.1 1.6-7.5 2.5zm368.9-.5c-2.5-.8-5-1.7-7.5-2.5l.3-1c2.5.8 5 1.6 7.5 2.5l-.3 1zm-357.7-3.3l-.3-1c2.5-.8 5-1.6 7.6-2.4l.3 1c-2.6.8-5.1 1.6-7.6 2.4zm346.4-.4c-2.5-.8-5-1.6-7.6-2.3l.3-1c2.5.8 5 1.5 7.6 2.3l-.3 1zm-335-3.1l-.3-1c2.5-.7 5-1.5 7.6-2.2l.3 1c-2.6.7-5.2 1.5-7.6 2.2zm323.7-.4c-2.5-.7-5.1-1.5-7.6-2.2l.3-1c2.5.7 5.1 1.4 7.6 2.2l-.3 1zm-312.3-2.9l-.3-1c2.5-.7 5.1-1.4 7.7-2l.3 1c-2.7.7-5.2 1.4-7.7 2zm300.9-.3c-2.6-.7-5.1-1.4-7.6-2l.2-1c2.5.7 5.1 1.3 7.7 2l-.3 1zm-289.5-2.7l-.2-1c2.5-.6 5.1-1.3 7.7-1.9l.2 1c-2.6.7-5.1 1.3-7.7 1.9zm278-.3c-2.6-.6-5.1-1.3-7.7-1.9l.2-1c2.6.6 5.1 1.2 7.7 1.9l-.2 1zm-266.4-2.5l-.2-1c2.5-.6 5.1-1.2 7.7-1.7l.2 1c-2.6.6-5.2 1.2-7.7 1.7zm254.8-.2c-2.6-.6-5.2-1.2-7.7-1.7l.2-1c2.6.5 5.1 1.1 7.7 1.7l-.2 1zM610.9 13l-.2-1c2.6-.5 5.1-1.1 7.8-1.6l.2 1c-2.7.6-5.3 1.1-7.8 1.6zm231.6-.2l-7.8-1.5.2-1 7.8 1.5-.2 1zm-220-2.1l-.2-1c2.6-.5 5.2-.9 7.8-1.4l.2 1c-2.6.5-5.2.9-7.8 1.4zm208.4-.2c-2.6-.5-5.2-.9-7.8-1.4l.2-1c2.6.4 5.2.9 7.8 1.4l-.2 1zM634.2 8.7l-.2-1 7.8-1.2.1 1c-2.5.3-5.1.7-7.7 1.2zm185-.3l-7.8-1.2.1-1 7.8 1.2-.1 1zM645.9 6.8l-.1-1c2.6-.4 5.2-.7 7.9-1.1l.1 1c-2.7.4-5.3.8-7.9 1.1zm161.6-.1c-2.6-.4-5.2-.7-7.8-1.1l.1-1c2.6.3 5.2.7 7.9 1.1l-.2 1zM657.7 5.3l-.1-1c2.6-.3 5.2-.6 7.9-.9l.1 1c-2.7.3-5.3.6-7.9.9zm138-.2c-2.6-.3-5.2-.6-7.9-.9l.1-1c2.6.3 5.2.6 7.9.9l-.1 1zM669.5 4l-.1-1c2.6-.3 5.2-.5 7.9-.7l.1 1c-2.7.1-5.3.4-7.9.7zm114.4-.2c-2.6-.3-5.3-.5-7.9-.7l.1-1c2.6.2 5.2.5 7.9.7l-.1 1zm-102.6-.9l-.1-1c2.6-.2 5.2-.4 7.9-.6l.1 1c-2.7.2-5.3.4-7.9.6zm90.8-.1c-2.6-.2-5.3-.4-7.9-.6l.1-1c2.6.2 5.3.4 7.9.6l-.1 1zm-79-.8l-.1-1c2.6-.2 5.3-.3 7.9-.4v1c-2.5.1-5.2.3-7.8.4zm67.2-.1c-2.6-.2-5.3-.3-7.9-.4v-1c2.6.1 5.3.2 7.9.4v1zM705 1.4v-1c2.6-.1 5.3-.2 7.9-.3v1c-2.7.2-5.3.2-7.9.3zm43.4 0c-2.6-.1-5.3-.2-7.9-.2v-1c2.6.1 5.3.1 7.9.2v1zm-31.6-.3v-1c2.6 0 5.3-.1 7.9-.1v1c-2.6 0-5.3 0-7.9.1zm19.8 0c-2.7 0-5.3-.1-7.9-.1V0c2.6 0 5.3 0 7.9.1v1zm226.2 50.3c-1.2-.5-2.4-1.1-3.7-1.6l.4-.9c1.2.5 2.4 1.1 3.7 1.6l-.4.9z"/></g></svg>