<svg id="Layer_1" xmlns="http://www.w3.org/2000/svg" width="156" height="60" viewBox="0 0 156 60"><style>.st0,.st1{fill-rule:evenodd;clip-rule:evenodd}.st1,.st2{fill:#fff}</style><path class="st0" d="M0 36.5l11.7 20.2c2.1 3.6 7.2 3.6 9.3 0l11.7-20.2M47.2 14c-.5.2-1.4.4-2.3.3-.9 0-1.8-.1-2.3-.4-1-.4-2.2-1.3-3.4-1.3-2.1 0-3.8 1.7-3.8 3.9 0 2.1 1.7 3.8 3.9 3.8 1.1 0 2.4-1 3.3-1.4.5-.2 1.4-.4 2.3-.4.9 0 1.8.2 2.3.4 1 .4 2.2 1.3 3.4 1.3 2.1 0 3.8-1.7 3.8-3.9 0-2.1-1.7-3.8-3.9-3.8-1.1.1-2.3 1.1-3.3 1.5zm-9.3 2.5c0-.8.6-1.5 1.5-1.5.8 0 1.5.6 1.5 1.5 0 .8-.6 1.5-1.5 1.5-.8 0-1.5-.7-1.5-1.5zm14.1-.1c0 .8-.6 1.5-1.5 1.5-.8 0-1.5-.6-1.5-1.5 0-.8.6-1.5 1.5-1.5.9.1 1.5.7 1.5 1.5z"/><path d="M39.4 20.6c-1.1 0-2.1-.4-2.9-1.2-.8-.8-1.2-1.8-1.2-2.9 0-2.3 1.8-4.1 4.1-4.1.9 0 1.8.5 2.6.9.3.2.6.3.9.4.4.2 1.3.4 2.2.3.9 0 1.7-.1 2.2-.3.3-.1.6-.3.9-.5.8-.4 1.7-1 2.5-1 1.1 0 2.1.4 2.9 1.2.8.8 1.2 1.8 1.2 2.9 0 1.1-.4 2.1-1.2 2.9-.8.8-1.8 1.2-2.9 1.2-.9 0-1.8-.5-2.6-.9-.3-.2-.6-.3-.9-.4-.5-.2-1.3-.4-2.2-.4h-.3c-.8 0-1.5.2-1.9.4-.3.1-.6.3-.9.5-.8.5-1.7 1-2.5 1zm-.1-7.7c-2 0-3.6 1.6-3.6 3.6 0 1 .4 1.9 1.1 2.5.7.7 1.6 1 2.5 1 .7 0 1.6-.5 2.3-.9.3-.2.6-.4.9-.5.5-.2 1.4-.5 2.4-.4.9 0 1.8.2 2.3.4.3.1.6.3.9.4.8.4 1.6.9 2.4.9 1 0 1.9-.4 2.5-1.1.7-.7 1-1.6 1-2.5 0-1-.4-1.9-1.1-2.5-.7-.7-1.6-1.1-2.5-1-.7 0-1.6.5-2.3.9-.3.2-.6.4-.9.5-.6.3-1.5.4-2.4.4-1 0-1.9-.2-2.4-.4-.3-.1-.6-.3-.9-.4-.5-.4-1.4-.9-2.2-.9zm.1 5.3c-.5 0-.9-.2-1.2-.5-.3-.3-.5-.8-.5-1.2 0-.9.8-1.7 1.7-1.7.9 0 1.7.8 1.7 1.7 0 .5-.2.9-.5 1.2-.3.4-.8.5-1.2.5zm-1.3-1.7c0 .7.5 1.2 1.2 1.2.3 0 .6-.1.9-.4.2-.2.4-.5.4-.9 0-.7-.5-1.2-1.2-1.2-.7.1-1.3.7-1.3 1.3zm12.5 1.7c-.9 0-1.7-.8-1.7-1.7 0-.9.8-1.7 1.7-1.7.9 0 1.7.8 1.7 1.7 0 .9-.8 1.7-1.7 1.7zm0-3c-.7 0-1.2.5-1.2 1.2s.6 1.2 1.2 1.2c.7 0 1.2-.5 1.2-1.2 0-.6-.6-1.2-1.2-1.2z"/><path class="st1" d="M47.5 13.5c-.5.2-1.4.4-2.3.3-.9 0-1.8-.1-2.3-.4-1-.4-2.2-1.3-3.4-1.3-2.1 0-3.8 1.7-3.8 3.9 0 2.1 1.7 3.8 3.9 3.8 1.1 0 2.4-1 3.3-1.4.5-.2 1.4-.4 2.3-.4.9 0 1.8.2 2.3.4 1 .4 2.2 1.3 3.4 1.3 2.1 0 3.8-1.7 3.8-3.9 0-2.1-1.7-3.8-3.9-3.8-1.1.1-2.4 1.1-3.3 1.5zM38.1 16c0-.8.6-1.5 1.5-1.5.8 0 1.5.6 1.5 1.5 0 .8-.6 1.5-1.5 1.5-.8 0-1.5-.7-1.5-1.5zm14.2-.1c0 .8-.6 1.5-1.5 1.5-.8 0-1.5-.6-1.5-1.5 0-.8.6-1.5 1.5-1.5.8.1 1.5.7 1.5 1.5z"/><path class="st2" d="M39.6 20.1c-1.1 0-2.1-.4-2.9-1.2-.8-.8-1.2-1.8-1.2-2.9 0-2.3 1.8-4.1 4.1-4.1.9 0 1.8.5 2.6.9.3.2.6.3.9.4.4.2 1.3.4 2.2.3.9 0 1.7-.1 2.2-.3.3-.1.6-.3.9-.5.8-.4 1.7-1 2.5-1 1.1 0 2.1.4 2.9 1.2.8.8 1.2 1.8 1.2 2.9 0 2.3-1.8 4.1-4.1 4.1-.9 0-1.8-.5-2.6-.9-.3-.2-.6-.3-.9-.4-.5-.2-1.3-.4-2.2-.4h-.3c-.8 0-1.5.2-1.9.4-.3.1-.6.3-.9.5-.7.5-1.6 1-2.5 1zm0-7.7c-2 0-3.6 1.6-3.6 3.6 0 1 .4 1.9 1.1 2.5.7.7 1.6 1 2.5 1 .7 0 1.6-.5 2.3-.9.3-.2.6-.4.9-.5.5-.2 1.4-.5 2.4-.4.9 0 1.8.2 2.3.4.3.1.6.3.9.4.8.4 1.6.9 2.4.9 2 0 3.6-1.6 3.6-3.6 0-1-.4-1.9-1.1-2.5-.7-.7-1.6-1-2.5-1-.7 0-1.6.5-2.3.9-.3.2-.6.4-.9.5-.6.3-1.5.4-2.4.4-1 0-1.9-.2-2.4-.4-.3-.1-.6-.3-.9-.4-.7-.4-1.6-.9-2.3-.9zm0 5.3c-.5 0-.9-.2-1.2-.5-.3-.3-.5-.8-.5-1.2 0-.9.8-1.7 1.7-1.7.9 0 1.7.8 1.7 1.7 0 .5-.2.9-.5 1.2-.3.3-.7.5-1.2.5zM38.4 16c0 .7.5 1.2 1.2 1.2.3 0 .6-.1.9-.4.2-.2.4-.5.4-.9 0-.7-.5-1.2-1.2-1.2-.8.1-1.3.6-1.3 1.3zm12.4 1.7c-.9 0-1.7-.8-1.7-1.7 0-.5.2-.9.5-1.2.3-.3.8-.5 1.2-.5.5 0 .9.2 1.2.5.3.3.5.8.5 1.2.1.9-.7 1.6-1.7 1.7zm0-3c-.3 0-.6.1-.9.4s-.4.5-.4.9c0 .7.5 1.2 1.2 1.2s1.2-.5 1.2-1.2c.1-.7-.4-1.3-1.1-1.3z"/><path class="st0" d="M36.9 8.6c.2.5.4 1.4.3 2.3 0 .9-.1 1.8-.4 2.3-.4 1-1.3 2.2-1.3 3.4 0 2.1 1.7 3.8 3.9 3.8 2.1 0 3.8-1.7 3.8-3.9 0-1.1-1-2.4-1.4-3.3-.2-.5-.4-1.4-.4-2.3 0-.9.2-1.8.4-2.3.4-1 1.3-2.2 1.3-3.4 0-2.1-1.7-3.8-3.9-3.8-2.1 0-3.8 1.7-3.8 3.9.1 1.1 1.1 2.4 1.5 3.3zm2.5 9.4c-.8 0-1.5-.6-1.5-1.5 0-.8.6-1.5 1.5-1.5.8 0 1.5.6 1.5 1.5 0 .8-.7 1.5-1.5 1.5zm-.1-14.2c.8 0 1.5.6 1.5 1.5 0 .8-.6 1.5-1.5 1.5-.8 0-1.5-.6-1.5-1.5.1-.8.7-1.5 1.5-1.5z"/><path d="M39.4 20.6c-1.1 0-2.1-.4-2.9-1.2-.8-.8-1.2-1.8-1.2-2.9 0-.9.5-1.8.9-2.6.2-.3.3-.6.4-.9.2-.4.4-1.3.3-2.2 0-.9-.1-1.7-.3-2.2-.1-.3-.3-.6-.5-.9-.4-.8-1-1.7-1-2.5 0-1.1.4-2.1 1.2-2.9s1.8-1.2 2.9-1.2c2.2 0 4.1 1.8 4.1 4.1 0 .9-.5 1.8-.9 2.6-.2.3-.3.6-.4.9-.2.5-.4 1.3-.4 2.2v.3c0 .8.2 1.5.4 1.9.1.3.3.6.5.9.4.8 1 1.7 1 2.5 0 1.1-.4 2.1-1.2 2.9-.7.8-1.8 1.2-2.9 1.2zm-.1-18.9c-1 0-1.9.4-2.5 1.1-.7.7-1 1.6-1 2.5 0 .7.5 1.6.9 2.3.2.3.4.6.5.9.3.6.4 1.5.4 2.4 0 1-.2 1.9-.4 2.4-.1.3-.3.6-.4.9-.4.8-.9 1.6-.9 2.4 0 1 .4 1.9 1.1 2.5.7.7 1.6 1 2.5 1 1 0 1.9-.4 2.5-1.1.7-.7 1-1.6 1-2.5 0-.7-.5-1.6-.9-2.3-.2-.3-.4-.6-.5-.9-.2-.5-.5-1.4-.4-2.4 0-.9.2-1.8.4-2.3.1-.3.3-.6.4-.9.4-.8.9-1.6.9-2.4 0-2-1.6-3.6-3.6-3.6zm.1 16.5c-.9 0-1.7-.8-1.7-1.7 0-.9.8-1.7 1.7-1.7.9 0 1.7.8 1.7 1.7 0 .5-.2.9-.5 1.2-.3.3-.7.5-1.2.5zm0-.5v.3-.3c.3 0 .6-.1.9-.4.2-.2.4-.5.4-.9 0-.7-.6-1.2-1.2-1.2-.7 0-1.2.5-1.2 1.2-.1.8.5 1.3 1.1 1.3zM39.3 7c-.5 0-.9-.2-1.2-.5-.3-.3-.5-.8-.5-1.2 0-.5.2-.9.5-1.2.3-.3.8-.5 1.2-.5.5 0 .9.2 1.2.5.3.3.5.8.5 1.2.1.9-.7 1.7-1.7 1.7zm0-2.9c-.7 0-1.2.5-1.2 1.2 0 .3.1.6.4.9.2.2.5.4.9.4.7 0 1.2-.5 1.2-1.2 0-.3-.1-.6-.4-.9-.2-.3-.5-.4-.9-.4z"/><path class="st1" d="M37.2 8.1c.2.5.4 1.4.3 2.3 0 .9-.1 1.8-.4 2.3-.4 1-1.3 2.2-1.3 3.4 0 2.1 1.7 3.8 3.9 3.8 2.1 0 3.8-1.7 3.8-3.9 0-1.1-1-2.4-1.4-3.3-.2-.5-.4-1.4-.4-2.3 0-.9.2-1.8.4-2.3.4-1 1.3-2.2 1.3-3.4 0-2.1-1.7-3.8-3.9-3.8-2.1 0-3.8 1.7-3.8 3.9.1 1.1 1 2.4 1.5 3.3zm2.5 9.4c-.8 0-1.5-.6-1.5-1.5 0-.8.6-1.5 1.5-1.5.8 0 1.5.6 1.5 1.5-.1.8-.7 1.5-1.5 1.5zm-.1-14.2c.8 0 1.5.6 1.5 1.5 0 .8-.6 1.5-1.5 1.5-.8 0-1.5-.6-1.5-1.5 0-.8.7-1.5 1.5-1.5z"/><path class="st2" d="M39.7 20.1c-2.2 0-4.1-1.8-4.1-4.1 0-.9.5-1.8.9-2.6.2-.3.3-.6.4-.9.2-.4.4-1.3.3-2.2 0-.9-.1-1.7-.3-2.2-.1-.3-.3-.6-.5-.9-.4-.8-1-1.7-1-2.5 0-1.1.4-2.1 1.2-2.9S38.4.6 39.5.6c2.3 0 4.1 1.8 4.1 4.1 0 .9-.5 1.8-.9 2.6-.2.3-.3.6-.4.9-.2.5-.4 1.3-.4 2.2v.3c0 .8.2 1.5.4 1.9.1.3.3.6.5.9.4.8 1 1.7 1 2.5 0 2.2-1.9 4.1-4.1 4.1zm-.1-18.9c-1 0-1.9.4-2.5 1.1-.7.7-1 1.6-1 2.5 0 .7.5 1.6.9 2.3.2.3.4.7.5.9.3.6.4 1.5.4 2.4 0 1-.2 1.9-.4 2.4-.1.3-.3.6-.4.9-.4.8-.9 1.6-.9 2.4 0 2 1.6 3.6 3.6 3.6s3.6-1.6 3.6-3.6c0-.7-.5-1.6-.9-2.3-.2-.3-.4-.6-.5-.9-.2-.5-.5-1.4-.4-2.4 0-.9.2-1.8.4-2.3.1-.3.3-.6.4-.9.4-.8.9-1.6.9-2.4-.1-2.1-1.7-3.7-3.7-3.7zm.1 16.5c-.9 0-1.7-.8-1.7-1.7 0-.9.8-1.7 1.7-1.7.5 0 .9.2 1.2.5.3.3.5.8.5 1.2 0 .5-.2.9-.5 1.2s-.8.5-1.2.5zm0-.5v.3-.3c.3 0 .6-.1.9-.4.2-.2.4-.5.4-.9 0-.3-.1-.6-.4-.9-.2-.2-.5-.4-.9-.4-.7 0-1.2.5-1.2 1.2 0 .9.5 1.4 1.2 1.4zm-.1-10.7c-.5 0-.9-.2-1.2-.5-.3-.3-.5-.8-.5-1.2 0-.5.2-.9.5-1.2s.7-.6 1.2-.6c.9 0 1.7.8 1.7 1.7 0 1-.8 1.8-1.7 1.8zm0-3.2v.3c-.3 0-.6.1-.9.4-.2.2-.4.5-.4.9 0 .3.1.6.4.9.3 0 .6.2.9.2.7 0 1.2-.5 1.2-1.2s-.5-1.2-1.2-1.2v-.3z"/><path class="st0" d="M36.9 19.8c.2.5.4 1.4.3 2.3 0 .9-.1 1.8-.4 2.3-.4 1-1.3 2.2-1.3 3.4 0 2.1 1.7 3.8 3.9 3.8 2.1 0 3.8-1.7 3.8-3.9 0-1.1-1-2.4-1.4-3.3-.2-.5-.4-1.4-.4-2.3 0-.9.2-1.8.4-2.3.4-1 1.3-2.2 1.3-3.4 0-2.1-1.7-3.8-3.9-3.8-2.1 0-3.8 1.7-3.8 3.9.1 1.1 1.1 2.4 1.5 3.3zm2.5 9.4c-.8 0-1.5-.6-1.5-1.5 0-.8.6-1.5 1.5-1.5.8 0 1.5.6 1.5 1.5 0 .8-.7 1.4-1.5 1.5zM39.3 15c.8 0 1.5.6 1.5 1.5 0 .8-.6 1.5-1.5 1.5-.8 0-1.5-.6-1.5-1.5.1-.8.7-1.5 1.5-1.5z"/><path d="M39.4 31.8c-1.1 0-2.1-.4-2.9-1.2-.8-.8-1.2-1.8-1.2-2.9 0-.9.5-1.8.9-2.6.2-.3.3-.6.4-.9.2-.4.4-1.3.3-2.2 0-.9-.1-1.7-.3-2.2-.1-.3-.3-.6-.5-.9-.4-.8-1-1.7-1-2.5 0-1.1.4-2.1 1.2-2.9s1.8-1.2 2.9-1.2c2.2 0 4.1 1.8 4.1 4.1 0 .9-.5 1.8-.9 2.6-.2.3-.3.6-.4.9-.2.5-.4 1.3-.4 2.2v.3c0 .8.2 1.5.4 1.9.1.3.3.6.5.9.4.8 1 1.7 1 2.5 0 1.1-.4 2.1-1.2 2.9s-1.8 1.2-2.9 1.2zm-.1-18.9c-1 0-1.9.4-2.5 1.1s-1 1.6-1 2.5c0 .7.5 1.6.9 2.3.2.3.4.6.5.9.3.6.4 1.5.4 2.4 0 1-.2 1.9-.4 2.4-.1.3-.3.6-.4.9-.4.8-.9 1.6-.9 2.4 0 1 .4 1.9 1.1 2.5.7.7 1.6 1 2.5 1 1 0 1.9-.4 2.5-1.1.7-.7 1-1.6 1-2.5 0-.7-.5-1.6-.9-2.3-.2-.3-.4-.6-.5-.9-.2-.5-.5-1.4-.4-2.4 0-.9.2-1.8.4-2.3.1-.3.3-.6.4-.9.4-.8.9-1.6.9-2.4 0-2-1.6-3.6-3.6-3.6zm.1 16.5c-.9 0-1.7-.8-1.7-1.7 0-.9.8-1.7 1.7-1.7.9 0 1.7.8 1.7 1.7 0 .9-.7 1.7-1.7 1.7zm0-.5v.3-.3c.7 0 1.2-.5 1.2-1.2s-.6-1.2-1.2-1.2c-.7 0-1.2.5-1.2 1.2s.6 1.2 1.2 1.2zm-.1-10.7c-.5 0-.9-.2-1.2-.5-.3-.3-.5-.8-.5-1.2 0-.5.2-.9.5-1.2.3-.3.8-.5 1.2-.5.9 0 1.7.8 1.7 1.7.1.9-.7 1.7-1.7 1.7zm0-3.2v.3c-.7 0-1.2.5-1.2 1.2 0 .3.1.6.4.9.2.2.5.4.9.4.7 0 1.2-.5 1.2-1.2s-.5-1.2-1.2-1.2l-.1-.4z"/><path class="st1" d="M37.2 19.3c.2.5.4 1.4.3 2.3 0 .9-.1 1.8-.4 2.3-.4 1-1.3 2.2-1.3 3.4 0 2.1 1.7 3.8 3.9 3.8 2.1 0 3.8-1.7 3.8-3.9 0-1.1-1-2.4-1.4-3.3-.2-.5-.4-1.4-.4-2.3 0-.9.2-1.8.4-2.3.4-1 1.3-2.2 1.3-3.4 0-2.1-1.7-3.8-3.9-3.8-2.1 0-3.8 1.7-3.8 3.9.1 1.1 1 2.3 1.5 3.3zm2.5 9.3c-.8 0-1.5-.6-1.5-1.5 0-.8.6-1.5 1.5-1.5.8 0 1.5.6 1.5 1.5-.1.9-.7 1.5-1.5 1.5zm-.1-14.1c.8 0 1.5.6 1.5 1.5 0 .8-.6 1.5-1.5 1.5-.8 0-1.5-.6-1.5-1.5s.7-1.5 1.5-1.5z"/><path class="st2" d="M39.7 31.3c-2.2 0-4.1-1.8-4.1-4.1 0-.9.5-1.8.9-2.6.2-.3.3-.6.4-.9.2-.4.4-1.3.3-2.2 0-.9-.1-1.7-.3-2.2-.1-.3-.3-.6-.5-.9-.4-.8-1-1.7-1-2.5 0-1.1.4-2.1 1.2-2.9s1.8-1.2 2.9-1.2c2.2 0 4.1 1.8 4.1 4.1 0 .9-.5 1.8-.9 2.6-.2.3-.3.6-.4.9-.2.5-.4 1.3-.4 2.2v.3c0 .8.2 1.5.4 1.9.1.3.3.6.5.9.4.8 1 1.7 1 2.5 0 2.2-1.9 4.1-4.1 4.1zm-.1-18.9c-1 0-1.9.4-2.5 1.1-.7.7-1 1.6-1 2.5 0 .7.5 1.6.9 2.3.2.3.4.6.5.9.3.6.4 1.5.4 2.4 0 1-.2 1.9-.4 2.4-.1.3-.3.6-.4.9-.4.8-.9 1.6-.9 2.4 0 2 1.6 3.6 3.6 3.6s3.6-1.6 3.6-3.6c0-.7-.5-1.6-.9-2.3-.2-.3-.4-.6-.5-.9-.2-.5-.5-1.4-.4-2.4 0-.9.2-1.8.4-2.3.1-.3.3-.6.4-.9.4-.8.9-1.6.9-2.4-.1-2.1-1.7-3.7-3.7-3.7zm.1 16.5c-.9 0-1.7-.8-1.7-1.7 0-.9.8-1.7 1.7-1.7.5 0 .9.2 1.2.5.3.3.5.8.5 1.2 0 .5-.2.9-.5 1.2-.3.3-.8.5-1.2.5zm0-.5v.3-.3c.3 0 .6-.1.9-.4.2-.2.4-.5.4-.9 0-.3-.1-.6-.4-.9-.3-.1-.6-.2-.9-.2-.7 0-1.2.5-1.2 1.2 0 .6.5 1.2 1.2 1.2zm-.1-10.7c-.5 0-.9-.2-1.2-.5-.3-.3-.5-.8-.5-1.2 0-.5.2-.9.5-1.2.3-.3.8-.5 1.2-.5.9 0 1.7.8 1.7 1.7 0 .9-.8 1.7-1.7 1.7zm0-3.2v.3c-.7 0-1.2.5-1.2 1.2 0 .3.1.6.4.9.2.2.5.4.9.4.7 0 1.2-.5 1.2-1.2s-.6-1.2-1.2-1.2l-.1-.4z"/><path class="st0" d="M13.3 33.6c-.4-.4-.8-1.2-1.1-2-.3-.8-.5-1.7-.4-2.3.1-1 .5-2.6.1-3.6-.7-2-2.9-3-4.9-2.3-2 .7-3 2.9-2.3 4.9.4 1.1 1.7 1.9 2.5 2.6.4.4.9 1.1 1.1 2 .3.8.5 1.7.4 2.3-.1 1-.5 2.6-.1 3.6.7 2 2.9 3 4.9 2.3 2-.7 3-2.9 2.3-4.9-.4-1-1.7-1.9-2.5-2.6zm-5.5-7.9c.8-.3 1.6.1 1.9.9.3.8-.1 1.6-.9 1.9-.8.3-1.6-.1-1.9-.9-.3-.8.1-1.7.9-1.9zm4.9 13.2c-.8.3-1.6-.1-1.9-.9-.3-.8.1-1.6.9-1.9.8-.3 1.6.1 1.9.9.3.8-.1 1.7-.9 1.9z"/><path d="M12.2 41.6c-1.7 0-3.2-1-3.8-2.7-.3-.8-.2-1.9 0-2.8 0-.3.1-.7.1-.9 0-.5-.1-1.4-.4-2.1l-.1-.2c-.3-.7-.7-1.3-1-1.7-.2-.2-.5-.4-.8-.7-.7-.6-1.5-1.2-1.8-2.1-.8-2.1.3-4.5 2.4-5.3 2.1-.8 4.5.3 5.3 2.4.3.8.2 1.9 0 2.8 0 .3-.1.7-.1.9 0 .5.1 1.3.4 2.1.3.9.7 1.6 1.1 1.9.2.2.5.4.8.7.7.6 1.5 1.2 1.8 2.1.8 2.1-.3 4.5-2.4 5.3-.5.3-1 .3-1.5.3zM8.6 33c.3.9.4 1.8.4 2.3 0 .3-.1.6-.1 1-.1.9-.3 1.8 0 2.5.7 1.9 2.7 2.8 4.6 2.1 1.9-.7 2.8-2.7 2.1-4.6-.3-.7-1-1.3-1.6-1.8-.3-.2-.6-.5-.8-.7-.5-.5-.9-1.3-1.2-2.1-.4-.9-.5-1.8-.5-2.3 0-.3.1-.6.1-1 .1-.9.3-1.8 0-2.5-.6-2-2.7-2.9-4.5-2.2-1.9.7-2.8 2.7-2.1 4.6.3.7 1 1.3 1.6 1.8.3.2.6.5.8.7.3.4.9 1.2 1.2 2.2zm3.6 6.3c-.2 0-.5-.1-.7-.2-.4-.2-.7-.5-.9-1-.2-.4-.1-.9.1-1.3s.5-.7 1-.9c.4-.2.9-.1 1.3.1s.7.5.9 1c.2.4.1.9-.1 1.3s-.5.7-1 .9c-.2 0-.4.1-.6.1zm0-3c-.1 0-.3 0-.4.1-.3.1-.5.3-.7.6-.1.3-.1.6 0 .9.1.3.3.5.6.7.3.1.6.1.9 0 .3-.1.5-.3.7-.6.1-.3.1-.6 0-.9-.1-.3-.3-.5-.6-.7-.1 0-.3-.1-.5-.1zm-3.9-7.5c-.2 0-.5-.1-.7-.2-.4-.2-.7-.5-.9-1-.3-.9.1-1.9 1-2.2.9-.3 1.9.1 2.2 1 .2.4.1.9-.1 1.3s-.5.7-1 .9c-.1.1-.3.2-.5.2zm-.4-2.9c-.6.2-.9.9-.7 1.6.1.3.3.5.6.7.3.1.6.1.9 0 .3-.1.5-.3.7-.6.1-.3.1-.6 0-.9-.2-.7-.9-1-1.5-.8z"/><path class="st1" d="M13.6 33.1c-.4-.4-.8-1.2-1.1-2-.3-.8-.5-1.7-.4-2.3.1-1 .5-2.6.1-3.6-.7-2-2.9-3-4.9-2.3-2 .7-3 2.9-2.3 4.9.4 1.1 1.7 1.9 2.5 2.6.4.4.9 1.1 1.1 2 .3.9.4 1.8.4 2.4-.1 1-.5 2.6-.1 3.6.7 2 2.9 3 4.9 2.3 2-.7 3-2.9 2.3-4.9-.4-1.1-1.8-2-2.5-2.7zm-5.5-8c.8-.3 1.6.1 1.9.9.3.8-.1 1.6-.9 1.9-.8.3-1.6-.1-1.9-.9-.3-.7.1-1.6.9-1.9zM13 38.4c-.8.3-1.6-.1-1.9-.9-.3-.8.1-1.6.9-1.9.8-.3 1.6.1 1.9.9.2.8-.2 1.6-.9 1.9z"/><path class="st2" d="M12.5 41.1c-1.7 0-3.2-1-3.8-2.7-.3-.8-.2-1.9 0-2.8 0-.3.1-.7.1-.9 0-.5-.1-1.4-.4-2.1l-.1-.2c-.3-.7-.7-1.3-1-1.7-.3-.2-.5-.5-.8-.7-.7-.6-1.5-1.2-1.8-2.1-.4-1-.3-2.1.1-3.1.5-1 1.3-1.7 2.3-2.1 1-.4 2.1-.3 3.1.1 1 .5 1.7 1.3 2.1 2.3.3.8.2 1.9 0 2.8 0 .3-.1.7-.1.9 0 .5.1 1.3.4 2.1.3.9.7 1.6 1.1 1.9.2.2.5.4.8.7.7.6 1.5 1.2 1.8 2.1.4 1 .3 2.1-.1 3.1-.5 1-1.3 1.7-2.3 2.1-.5.3-.9.3-1.4.3zm-3.7-8.6c.4.9.4 1.8.4 2.3 0 .3-.1.6-.1 1-.1.9-.3 1.8 0 2.5.7 1.9 2.7 2.8 4.6 2.1.9-.3 1.6-1 2-1.9.4-.9.4-1.8.1-2.7-.3-.7-1-1.3-1.6-1.8-.3-.2-.6-.5-.8-.7-.5-.5-.9-1.3-1.2-2.1-.4-.9-.5-1.8-.5-2.3 0-.3.1-.6.1-1 .1-.9.3-1.8 0-2.5-.3-.9-1-1.6-1.9-2-.9-.4-1.8-.4-2.7-.1-.9.3-1.6 1-2 1.9-.4.9-.4 1.8-.1 2.7.3.7 1 1.3 1.6 1.8.3.2.6.5.8.7.5.3 1 1.1 1.3 2.1zm3.7 6.3c-.2 0-.5-.1-.7-.2-.4-.2-.7-.5-.9-1-.3-.9.1-1.9 1-2.2.4-.2.9-.1 1.3.1s.7.5.9 1c.2.4.1.9-.1 1.3s-.5.7-1 .9c-.1 0-.3.1-.5.1zm0-3c-.1 0-.3 0-.4.1-.6.2-.9.9-.7 1.6.1.3.3.5.6.7.3.1.6.1.9 0 .3-.1.5-.3.7-.6.1-.3.1-.6 0-.9-.1-.3-.3-.5-.6-.7-.2-.1-.3-.2-.5-.2zm-3.9-7.6c-.7 0-1.4-.4-1.6-1.1-.2-.4-.1-.9.1-1.3s.5-.7 1-.9c.9-.3 1.9.1 2.2 1 .2.4.1.9-.1 1.3s-.5.7-1 .9c-.2.1-.4.1-.6.1zm0-2.9c-.1 0-.3 0-.4.1-.6.2-.9.9-.7 1.6.2.6.9.9 1.6.7.3-.1.5-.3.7-.6.1-.3.1-.6 0-.9-.3-.6-.7-.9-1.2-.9z"/><path class="st0" d="M19.6 45.9c0-.5.1-1.4.5-2.2.3-.8.8-1.6 1.1-2 .7-.7 2-1.6 2.4-2.7.8-2-.2-4.2-2.2-4.9-2-.8-4.2.2-4.9 2.2-.4 1.1.1 2.6.1 3.6 0 .5-.1 1.4-.5 2.3-.3.8-.8 1.6-1.2 2-.7.7-2 1.6-2.4 2.7-.8 2 .2 4.2 2.2 4.9 2 .8 4.2-.2 4.9-2.2.5-1.2.1-2.7 0-3.7zm1-9.7c.8.3 1.1 1.1.9 1.9-.3.8-1.1 1.1-1.9.9-.8-.3-1.1-1.1-.8-1.9.2-.8 1.1-1.1 1.8-.9zm-5 13.3c-.8-.3-1.1-1.1-.9-1.9.3-.8 1.1-1.1 1.9-.9.8.3 1.1 1.1.8 1.9-.2.8-1 1.2-1.8.9z"/><path d="M16.1 52.2c-.5 0-1-.1-1.4-.3-2.1-.8-3.2-3.2-2.4-5.3.3-.8 1.1-1.5 1.8-2.1.3-.2.5-.4.7-.6.4-.4.8-1.1 1.1-1.9l.1-.3c.3-.7.4-1.4.3-1.9 0-.3-.1-.6-.1-1-.1-.9-.3-1.9 0-2.7.8-2.1 3.2-3.2 5.3-2.4 1 .4 1.8 1.1 2.3 2.1.4 1 .5 2.1.1 3.1-.3.8-1.1 1.5-1.8 2.1-.3.2-.5.4-.7.6-.3.3-.8 1.1-1.1 1.9-.4.8-.5 1.7-.5 2.1 0 .3.1.6.1 1 .1.9.3 1.9 0 2.7-.5 1.9-2.1 2.9-3.8 2.9zm.3-9.9c-.3.9-.8 1.6-1.2 2-.2.2-.5.4-.7.7-.7.6-1.4 1.2-1.7 1.9-.7 1.8.2 3.9 2.1 4.6 1.8.7 3.9-.2 4.6-2.1.3-.7.1-1.6 0-2.5-.1-.4-.1-.7-.1-1.1 0-.7.2-1.6.5-2.4.3-.9.8-1.7 1.2-2.1.2-.2.5-.4.7-.7.7-.6 1.4-1.2 1.7-1.9.3-.9.3-1.9-.1-2.7s-1.1-1.5-2-1.9c-1.8-.7-3.9.2-4.6 2.1-.3.7-.1 1.6 0 2.5.1.4.1.7.1 1.1 0 .6-.1 1.5-.5 2.5zm-.3 7.5c-.2 0-.4 0-.6-.1-.9-.3-1.3-1.3-1-2.2.3-.9 1.3-1.3 2.2-1 .9.3 1.3 1.3 1 2.2-.2.7-.9 1.1-1.6 1.1zm-.4-.5c.6.2 1.3-.1 1.6-.7.2-.6-.1-1.3-.7-1.6-.6-.2-1.3.1-1.6.7-.2.6.1 1.3.7 1.6zm4.4-10c-.2 0-.4 0-.6-.1-.4-.2-.8-.5-1-.9-.2-.4-.2-.9 0-1.3.3-.9 1.3-1.3 2.2-1 .4.2.8.5 1 .9.2.4.2.9 0 1.3s-.5.8-.9 1c-.2.1-.5.1-.7.1zm0-2.9c-.2 0-.3 0-.5.1-.3.1-.5.4-.6.7-.1.3-.1.6 0 .9.1.3.4.5.7.6.3.1.6.1.9 0 .3-.1.5-.4.6-.7.1-.3.1-.6 0-.9-.1-.3-.4-.5-.7-.6-.1-.1-.3-.1-.4-.1z"/><path class="st1" d="M19.9 45.4c0-.5.1-1.4.5-2.2.3-.8.8-1.6 1.1-2 .7-.7 2-1.6 2.4-2.7.8-2-.2-4.2-2.2-4.9-2-.8-4.2.2-4.9 2.2-.4 1.1.1 2.6.1 3.6 0 .5-.1 1.4-.5 2.3-.3.8-.8 1.6-1.2 2-.7.7-2 1.6-2.4 2.7-.8 2 .2 4.2 2.2 4.9 2 .7 4.2-.3 5-2.3.4-1.1-.1-2.6-.1-3.6zm1-9.7c.8.3 1.1 1.1.9 1.9-.3.8-1.1 1.1-1.9.9-.8-.3-1.1-1.1-.8-1.9.2-.8 1-1.2 1.8-.9zm-5 13.3c-.8-.3-1.1-1.1-.9-1.9.3-.8 1.1-1.1 1.9-.9.8.3 1.1 1.1.8 1.9-.2.8-1.1 1.2-1.8.9z"/><path class="st2" d="M16.4 51.7c-.5 0-1-.1-1.4-.3-1-.4-1.8-1.1-2.3-2.1-.4-1-.5-2.1-.1-3.1.3-.8 1.1-1.5 1.8-2.1.3-.2.5-.4.7-.6.4-.4.8-1.1 1.1-1.9l.1-.3c.3-.7.4-1.4.3-1.9 0-.3-.1-.6-.1-1-.1-.9-.3-1.9 0-2.7.8-2.1 3.2-3.2 5.3-2.4 1 .4 1.8 1.1 2.3 2.1.4 1 .5 2.1.1 3.1-.3.8-1.1 1.5-1.8 2.1-.3.2-.5.4-.7.6-.3.3-.8 1.1-1.1 1.9-.4.8-.5 1.7-.5 2.1 0 .3.1.6.1 1 .1.9.3 1.9 0 2.7-.6 1.8-2.2 2.8-3.8 2.8zm.3-9.9c-.3.9-.8 1.6-1.2 2-.2.2-.5.4-.7.7-.7.6-1.4 1.2-1.7 1.9-.3.9-.3 1.9.1 2.7.4.9 1.1 1.5 2 1.9 1.8.7 3.9-.2 4.6-2.1.3-.7.1-1.6 0-2.5-.1-.4-.1-.7-.1-1.1 0-.7.2-1.6.5-2.4.3-.9.8-1.7 1.2-2.1.2-.2.5-.4.7-.7.7-.6 1.4-1.2 1.7-1.9.3-.9.3-1.9-.1-2.7-.4-.9-1.1-1.5-2-1.9-1.8-.7-3.9.2-4.6 2.1-.3.7-.1 1.6 0 2.5.1.4.1.7.1 1.1 0 .6-.1 1.5-.5 2.5zm-.3 7.5c-.2 0-.4 0-.6-.1-.9-.3-1.3-1.3-1-2.2.3-.9 1.3-1.3 2.2-1 .9.3 1.3 1.3 1 2.2-.2.7-.9 1.1-1.6 1.1zm-.4-.6c.6.2 1.3-.1 1.6-.7.2-.6-.1-1.3-.7-1.6-.6-.2-1.3.1-1.6.7-.3.7.1 1.4.7 1.6zm4.4-9.9c-.2 0-.4 0-.6-.1-.4-.2-.8-.5-1-.9-.2-.4-.2-.9 0-1.3.3-.9 1.3-1.3 2.2-1 .4.2.8.5 1 .9.2.4.2.9 0 1.3s-.5.8-.9 1c-.3.1-.5.1-.7.1zm0-2.9c-.2 0-.3 0-.5.1-.3.1-.5.4-.6.7-.1.3-.1.6 0 .9.1.3.4.5.7.6.3.1.6.1.9 0 .3-.1.5-.4.6-.7.1-.3.1-.6 0-.9-.1-.3-.4-.5-.7-.6-.2-.1-.3-.1-.4-.1z"/><path class="st0" d="M27.7 24.7c0-.5.1-1.4.5-2.2.3-.8.7-1.6 1.1-2 .7-.8 2-1.6 2.4-2.7.7-2-.3-4.2-2.3-4.9-2-.7-4.2.3-4.9 2.3-.4 1.1.1 2.6.2 3.6 0 .5-.1 1.4-.4 2.3-.3.8-.8 1.6-1.1 2-.7.8-2 1.6-2.4 2.7-.7 2 .3 4.2 2.3 4.9 2 .7 4.2-.3 4.9-2.3.2-1.2-.3-2.7-.3-3.7zm.8-9.6c.8.3 1.2 1.1.9 1.9-.3.8-1.1 1.2-1.9.9-.8-.3-1.2-1.1-.9-1.9.3-.8 1.2-1.2 1.9-.9zm-4.8 13.3c-.8-.3-1.2-1.1-.9-1.9.3-.8 1.1-1.2 1.9-.9.8.3 1.2 1.1.9 1.9-.3.8-1.1 1.2-1.9.9z"/><path d="M24.2 31.1c-.5 0-.9-.1-1.4-.2-2.1-.8-3.2-3.1-2.5-5.2.3-.8 1.1-1.5 1.8-2.1.3-.2.5-.4.7-.7.4-.4.8-1.1 1.1-1.9l.1-.3c.3-.7.3-1.5.3-1.9 0-.3-.1-.6-.1-1-.2-.9-.3-1.9 0-2.7.4-1 1.1-1.8 2.1-2.3 1-.5 2.1-.5 3.1-.1s1.9 1.1 2.3 2.1c.5 1 .5 2.1.1 3.1-.3.8-1.1 1.5-1.8 2.1-.3.2-.5.4-.7.7-.3.4-.8 1.1-1.1 1.9-.4.8-.5 1.7-.4 2.2 0 .3.1.6.1 1 .2.9.3 1.9 0 2.7-.4 1.6-2 2.6-3.7 2.6zm.2-9.9c-.3.9-.8 1.7-1.2 2-.2.2-.5.4-.7.7-.6.6-1.4 1.2-1.6 1.9-.7 1.9.3 3.9 2.2 4.6 1.9.7 3.9-.3 4.6-2.2.2-.7.1-1.6-.1-2.5-.1-.4-.1-.7-.1-1.1 0-.7.1-1.6.5-2.4.3-.9.8-1.7 1.2-2.1.2-.2.5-.4.7-.7.6-.6 1.4-1.2 1.6-1.9.3-.9.3-1.9-.1-2.7-.4-.9-1.1-1.5-2-1.8-.9-.3-1.9-.3-2.7.1-.9.4-1.5 1.1-1.8 2-.2.7-.1 1.6.1 2.5.1.4.1.7.1 1.1-.2.6-.3 1.5-.7 2.5zm-.2 7.5c-.2 0-.4 0-.6-.1-.9-.3-1.4-1.3-1-2.2.3-.9 1.3-1.4 2.2-1 .9.3 1.4 1.3 1 2.2-.2.7-.9 1.1-1.6 1.1zm-.4-.6c.6.2 1.3-.1 1.5-.7.2-.6-.1-1.3-.7-1.5-.6-.2-1.3.1-1.5.7-.2.6.1 1.3.7 1.5zm4.2-9.9c-.2 0-.4 0-.6-.1-.9-.3-1.4-1.3-1-2.2.2-.4.5-.8.9-1 .4-.2.9-.2 1.3-.1.4.2.8.5 1 .9.2.4.2.9.1 1.3-.2.4-.5.8-.9 1-.3.1-.5.2-.8.2zm0-3c-.5 0-1 .3-1.1.8-.2.6.1 1.3.7 1.5.3.1.6.1.9 0 .3-.1.5-.4.6-.7.1-.3.1-.6 0-.9-.1-.3-.4-.5-.7-.6-.1 0-.2-.1-.4-.1z"/><path class="st1" d="M27.9 24.2c0-.5.1-1.4.5-2.2.3-.8.7-1.6 1.1-2 .7-.8 2-1.6 2.4-2.7.7-2-.3-4.2-2.3-4.9-2-.7-4.2.3-4.9 2.3-.4 1.1.1 2.6.2 3.6 0 .5-.1 1.4-.4 2.3-.3.8-.8 1.6-1.1 2-.7.8-2 1.6-2.4 2.7-.7 2 .3 4.2 2.3 4.9 2 .7 4.2-.3 4.9-2.3.3-1.2-.2-2.7-.3-3.7zm.9-9.7c.8.3 1.2 1.1.9 1.9-.3.8-1.1 1.2-1.9.9-.8-.3-1.2-1.1-.9-1.9.3-.7 1.1-1.1 1.9-.9zM24 27.9c-.8-.3-1.2-1.1-.9-1.9.3-.8 1.1-1.2 1.9-.9.8.3 1.2 1.1.9 1.9-.3.8-1.1 1.1-1.9.9z"/><path class="st2" d="M24.5 30.6c-.5 0-.9-.1-1.4-.2-2.1-.8-3.2-3.1-2.5-5.2.3-.8 1.1-1.5 1.8-2.1.3-.2.5-.4.7-.7.4-.4.8-1.1 1.1-1.9l.1-.3c.3-.7.3-1.5.3-1.9 0-.3-.1-.6-.1-1-.2-.9-.3-1.9 0-2.7.4-1 1.1-1.8 2.1-2.3 1-.5 2.1-.5 3.1-.1s1.9 1.1 2.3 2.1c.5 1 .5 2.1.1 3.1-.3.8-1.1 1.5-1.8 2.1-.3.2-.5.4-.7.7-.3.4-.8 1.1-1.1 1.9-.4.8-.5 1.7-.4 2.2 0 .3.1.6.1 1 .2.9.3 1.9 0 2.7-.5 1.6-2 2.6-3.7 2.6zm.2-10c-.3.9-.8 1.7-1.2 2-.2.2-.5.4-.7.7-.6.6-1.4 1.2-1.6 1.9-.7 1.9.3 3.9 2.2 4.6 1.9.7 3.9-.3 4.6-2.2.2-.7.1-1.6-.1-2.5-.1-.4-.1-.7-.1-1.1 0-.7.1-1.6.5-2.4.3-.9.8-1.7 1.2-2.1.2-.2.5-.4.7-.7.6-.6 1.4-1.2 1.6-1.9.3-.9.3-1.9-.1-2.7-.4-.9-1.1-1.5-2-1.8-.9-.3-1.9-.3-2.7.1-.9.4-1.5 1.1-1.8 2-.2.7-.1 1.6.1 2.5.1.4.1.7.1 1.1-.3.7-.3 1.6-.7 2.5zm-.2 7.6c-.2 0-.4 0-.6-.1-.9-.3-1.4-1.3-1-2.2.2-.4.5-.8.9-1 .4-.2.9-.2 1.3-.1.9.3 1.4 1.3 1 2.2-.2.8-.9 1.2-1.6 1.2zm-.4-.6c.6.2 1.3-.1 1.5-.7.2-.6-.1-1.3-.7-1.5-.3-.1-.6-.1-.9 0-.3.1-.5.4-.6.7-.3.6.1 1.3.7 1.5zm4.2-10c-.2 0-.4 0-.6-.1-.9-.3-1.4-1.3-1-2.2.2-.4.5-.8.9-1 .4-.2.9-.2 1.3-.1.9.3 1.4 1.3 1 2.2-.2.4-.5.8-.9 1-.2.2-.5.2-.7.2zm0-2.9c-.2 0-.3 0-.5.1-.3.1-.5.4-.6.7-.2.6.1 1.3.7 1.5.3.1.6.1.9 0 .3-.1.5-.4.6-.7.2-.6-.1-1.3-.7-1.5-.1-.1-.3-.1-.4-.1z"/><path class="st0" d="M9.5 23c-.4-.4-.8-1.2-1.1-2-.3-.8-.5-1.7-.4-2.3.1-1 .5-2.6.1-3.6-.7-2-2.9-3-4.9-2.3-2 .7-3 2.9-2.3 4.9.4 1.1 1.7 1.9 2.5 2.6.4.4.9 1.1 1.1 2 .3.8.5 1.7.4 2.3-.1 1-.5 2.6-.1 3.6.7 2 2.9 3 4.9 2.3 2-.7 3-2.9 2.3-4.9-.4-1-1.8-1.8-2.5-2.6zm-5.6-7.9c.8-.3 1.6.1 1.9.9.3.8-.1 1.6-.9 1.9-.8.3-1.6-.1-1.9-.9-.2-.8.2-1.6.9-1.9zm5 13.3c-.8.3-1.6-.1-1.9-.9-.3-.8.1-1.6.9-1.9.8-.3 1.6.1 1.9.9.2.7-.2 1.6-.9 1.9z"/><path d="M8.4 31.1c-.6 0-1.2-.1-1.7-.4-1-.5-1.7-1.3-2.1-2.3-.3-.8-.2-1.9 0-2.8 0-.3.1-.7.1-.9 0-.5-.1-1.4-.4-2.1l-.1-.3c-.3-.7-.7-1.3-1-1.7-.2-.2-.5-.4-.8-.7-.7-.6-1.5-1.2-1.8-2.1-.4-1-.3-2.1.1-3.1.5-.9 1.3-1.7 2.3-2.1 1-.4 2.1-.3 3.1.1 1 .5 1.7 1.3 2.1 2.3.3.8.2 1.9 0 2.8 0 .3-.1.7-.1.9 0 .5.1 1.3.4 2.1.3.9.7 1.6 1.1 1.9.2.2.5.4.8.7.7.6 1.5 1.2 1.8 2.1.4 1 .3 2.1-.1 3.1-.5 1-1.3 1.7-2.3 2.1-.5.3-1 .4-1.4.4zm-3.7-8.7c.4.9.4 1.8.4 2.3 0 .3-.1.6-.1 1-.1.9-.3 1.8 0 2.5.3.9 1 1.6 1.9 2 .9.4 1.8.4 2.7.1.9-.3 1.6-1 2-1.9.4-.9.4-1.8.1-2.7-.3-.7-1-1.3-1.6-1.8-.3-.2-.6-.5-.8-.7-.5-.5-.9-1.3-1.2-2.1-.4-.9-.5-1.8-.5-2.3 0-.3.1-.6.1-1 .1-.9.3-1.8 0-2.5-.3-.9-1-1.6-1.9-2-.9-.4-1.8-.4-2.7-.1-.9.3-1.6 1-2 1.9-.4.9-.4 1.8-.1 2.7.3.7 1 1.3 1.6 1.8.4.2.7.4.9.7.4.3.9 1.1 1.2 2.1zm3.7 6.3c-.7 0-1.4-.4-1.6-1.1-.2-.4-.1-.9.1-1.3s.5-.7 1-.9c.9-.3 1.9.1 2.2 1 .3.9-.1 1.9-1 2.2-.3.1-.5.1-.7.1zm0-2.9c-.1 0-.3 0-.4.1-.3.1-.5.3-.7.6-.1.3-.1.6 0 .9.2.6.9.9 1.6.7.6-.2.9-.9.7-1.6-.3-.4-.8-.7-1.2-.7zm-4-7.6c-.7 0-1.4-.4-1.6-1.1-.2-.4-.1-.9.1-1.3s.5-.7 1-.9c.4-.2.9-.1 1.3.1s.7.5.9 1c.3.9-.1 1.9-1 2.2-.3-.1-.5 0-.7 0zM4 15.3c-.3.1-.5.3-.7.6-.1.3-.1.6 0 .9.2.6.9.9 1.6.7.6-.2.9-.9.7-1.6-.1-.3-.3-.5-.6-.7-.4 0-.7 0-1 .1z"/><path class="st1" d="M9.7 22.5c-.4-.4-.8-1.2-1.1-2-.3-.8-.5-1.7-.4-2.3.1-1 .5-2.6.1-3.6-.7-2-2.9-3-4.9-2.3-2 .7-3 2.9-2.3 4.9.4 1.1 1.7 1.9 2.5 2.6.4.4.9 1.1 1.1 2 .3.8.5 1.7.4 2.3-.1 1-.5 2.6-.1 3.6.7 2 2.9 3 4.9 2.3 2-.7 3-2.9 2.3-4.9-.4-1-1.7-1.9-2.5-2.6zm-5.5-7.9c.8-.3 1.6.1 1.9.9.2.7-.1 1.5-.9 1.8-.8.3-1.6-.1-1.9-.9-.3-.7.1-1.5.9-1.8zm4.9 13.2c-.8.3-1.6-.1-1.9-.9-.3-.8.1-1.6.9-1.9.8-.3 1.6.1 1.9.9.3.8-.1 1.7-.9 1.9z"/><path class="st2" d="M8.6 30.6c-1.7 0-3.2-1-3.8-2.7-.3-.8-.2-1.9 0-2.8 0-.3.1-.7.1-.9 0-.5-.1-1.4-.4-2.1l-.1-.2c-.3-.7-.7-1.3-1-1.7-.2-.2-.5-.4-.8-.7-.7-.6-1.5-1.2-1.8-2.1-.8-2.1.3-4.5 2.4-5.3 1-.4 2.1-.3 3.1.1 1 .5 1.7 1.3 2.1 2.3.3.8.2 1.9 0 2.8 0 .3-.1.7-.1.9 0 .5.1 1.3.4 2.1.3.9.7 1.6 1.1 1.9.2.2.5.4.8.7.7.6 1.5 1.2 1.8 2.1.8 2.1-.3 4.5-2.4 5.3-.4.2-.9.3-1.4.3zM5 21.9c.4.9.4 1.8.4 2.3 0 .3-.1.6-.1 1-.2.8-.3 1.8 0 2.5.7 1.9 2.7 2.8 4.6 2.1 1.9-.7 2.8-2.7 2.1-4.6-.3-.7-1-1.3-1.6-1.8-.3-.2-.6-.5-.8-.7-.5-.5-.9-1.3-1.2-2.1-.4-.9-.5-1.8-.5-2.3 0-.3.1-.6.1-1 .1-.9.3-1.8 0-2.5-.3-.9-1-1.6-1.9-2-.9-.4-1.8-.4-2.7-.1-1.9.7-2.8 2.7-2.1 4.6.3.7 1 1.3 1.6 1.8.3.2.6.5.8.7.4.3 1 1.1 1.3 2.1zm3.6 6.3c-.7 0-1.4-.4-1.6-1.1-.2-.4-.1-.9.1-1.3s.5-.7 1-.9c.9-.3 1.9.1 2.2 1 .3.9-.1 1.9-1 2.2-.3.1-.5.1-.7.1zm0-2.9c-.1 0-.3 0-.4.1-.3.1-.5.3-.7.6-.1.3-.1.6 0 .9.2.6.9.9 1.6.7.6-.2.9-.9.7-1.6-.2-.4-.7-.7-1.2-.7zm-3.9-7.6c-.2 0-.5-.1-.7-.2-.4-.2-.7-.5-.9-1-.2-.4-.1-.9.1-1.3s.5-.7 1-.9c.4-.2.9-.1 1.3.1s.7.5.9 1c.2.4.1.9-.1 1.3s-.5.7-1 .9c-.2 0-.4.1-.6.1zm0-3c-.1 0-.3 0-.4.1-.3.1-.5.3-.7.6-.1.3-.1.6 0 .9.1.3.3.5.6.7.3.1.6.1.9 0 .3-.1.5-.3.7-.6.1-.3.1-.6 0-.9-.1-.3-.3-.5-.6-.7-.2 0-.3-.1-.5-.1z"/><path class="st0" d="M36 14c-.5.2-1.4.4-2.3.3-.9 0-1.8-.1-2.3-.4-1-.4-2.2-1.3-3.4-1.3-2.1 0-3.8 1.7-3.8 3.9 0 2.1 1.7 3.8 3.9 3.8 1.1 0 2.4-1 3.3-1.4.5-.2 1.4-.4 2.3-.4.9 0 1.8.2 2.3.4 1 .4 2.2 1.3 3.4 1.3 2.1 0 3.8-1.7 3.8-3.9 0-2.1-1.7-3.8-3.9-3.8-1.1.1-2.3 1.1-3.3 1.5zm-9.3 2.5c0-.8.6-1.5 1.5-1.5.8 0 1.5.6 1.5 1.5 0 .8-.6 1.5-1.5 1.5-.8 0-1.5-.7-1.5-1.5zm14.2-.1c0 .8-.6 1.5-1.5 1.5-.8 0-1.5-.6-1.5-1.5 0-.8.6-1.5 1.5-1.5.8.1 1.5.7 1.5 1.5z"/><path d="M28.2 20.6c-1.1 0-2.1-.4-2.9-1.2-.8-.8-1.2-1.8-1.2-2.9 0-2.3 1.8-4.1 4.1-4.1.9 0 1.8.5 2.6.9.3.2.6.3.9.4.4.2 1.3.4 2.2.3.9 0 1.7-.1 2.2-.3.3-.1.6-.3.9-.5.8-.4 1.7-1 2.5-1 1.1 0 2.1.4 2.9 1.2.8.8 1.2 1.8 1.2 2.9 0 1.1-.4 2.1-1.2 2.9-.8.8-1.8 1.2-2.9 1.2-.9 0-1.8-.5-2.6-.9-.3-.2-.6-.3-.9-.4-.5-.2-1.3-.4-2.2-.4h-.3c-.8 0-1.5.2-1.9.4-.3.1-.6.3-.9.5-.8.5-1.7 1-2.5 1zm0-7.7s-.1 0 0 0c-2 0-3.6 1.6-3.6 3.6 0 1 .4 1.9 1.1 2.5.7.7 1.6 1 2.5 1 .7 0 1.6-.5 2.3-.9.3-.2.6-.4.9-.5.5-.2 1.4-.5 2.4-.4.9 0 1.8.2 2.3.4.3.1.6.3.9.4.8.4 1.6.9 2.4.9 1 0 1.9-.4 2.5-1.1.7-.7 1-1.6 1-2.5 0-1-.4-1.9-1.1-2.5-.7-.7-1.6-1.1-2.5-1-.7 0-1.6.5-2.3.9-.3.2-.6.4-.9.5-.6.3-1.5.4-2.4.4-1 0-1.9-.2-2.4-.4-.3-.1-.6-.3-.9-.4-.6-.4-1.5-.9-2.2-.9zm0 5.3c-.5 0-.9-.2-1.2-.5-.3-.3-.5-.8-.5-1.2 0-.9.8-1.7 1.7-1.7.9 0 1.7.8 1.7 1.7 0 .5-.2.9-.5 1.2-.3.4-.8.5-1.2.5zM27 16.5c0 .7.5 1.2 1.2 1.2.3 0 .6-.1.9-.4.2-.2.4-.5.4-.9 0-.7-.5-1.2-1.2-1.2-.8.1-1.3.7-1.3 1.3zm12.4 1.7c-.9 0-1.7-.8-1.7-1.7 0-.9.8-1.7 1.7-1.7.9 0 1.7.8 1.7 1.7 0 .9-.8 1.7-1.7 1.7zm0-3c-.7 0-1.2.5-1.2 1.2s.5 1.2 1.2 1.2 1.2-.5 1.2-1.2c0-.6-.5-1.2-1.2-1.2z"/><path class="st1" d="M36.3 13.5c-.5.2-1.4.4-2.3.3-.9 0-1.8-.1-2.3-.4-1-.4-2.2-1.3-3.4-1.3-2.1 0-3.8 1.7-3.8 3.9 0 2.1 1.7 3.8 3.9 3.8 1.1 0 2.4-1 3.3-1.4.5-.2 1.4-.4 2.3-.4.9 0 1.8.2 2.3.4 1 .4 2.2 1.3 3.4 1.3 2.1 0 3.8-1.7 3.8-3.9 0-2.1-1.7-3.8-3.9-3.8-1.1.1-2.3 1.1-3.3 1.5zM27 16c0-.8.6-1.5 1.5-1.5.8 0 1.5.6 1.5 1.5 0 .8-.6 1.5-1.5 1.5S27 16.8 27 16zm14.1-.1c0 .8-.6 1.5-1.5 1.5-.8 0-1.5-.6-1.5-1.5 0-.8.6-1.5 1.5-1.5.8.1 1.5.7 1.5 1.5z"/><path class="st2" d="M28.4 20.1c-1.1 0-2.1-.4-2.9-1.2-.8-.8-1.2-1.8-1.2-2.9 0-2.3 1.8-4.1 4.1-4.1.9 0 1.8.5 2.6.9.3.2.6.3.9.4.4.2 1.3.4 2.2.3.9 0 1.7-.1 2.2-.3.3-.1.6-.3.9-.5.8-.4 1.7-1 2.5-1 1.1 0 2.1.4 2.9 1.2.8.8 1.2 1.8 1.2 2.9 0 1.1-.4 2.1-1.2 2.9-.8.8-1.8 1.2-2.9 1.2-.9 0-1.8-.5-2.6-.9-.3-.2-.6-.3-.9-.4-.5-.2-1.3-.4-2.2-.4h-.3c-.8 0-1.5.2-1.9.4-.3.1-.6.3-.9.5-.7.5-1.6 1-2.5 1zm0-7.7c-2 0-3.6 1.6-3.6 3.6 0 1 .4 1.9 1.1 2.5.7.7 1.6 1 2.5 1 .7 0 1.6-.5 2.3-.9.3-.2.6-.4.9-.5.5-.2 1.4-.5 2.4-.4.9 0 1.8.2 2.3.4.3.1.6.3.9.4.8.4 1.6.9 2.4.9 1 0 1.9-.4 2.5-1.1.7-.7 1-1.6 1-2.5 0-1-.4-1.9-1.1-2.5-.7-.7-1.6-1-2.5-1-.7 0-1.6.5-2.3.9-.3.2-.6.4-.9.5-.6.3-1.5.4-2.4.4-1 0-1.9-.2-2.4-.4-.3-.1-.6-.3-.9-.4-.6-.4-1.4-.9-2.2-.9zm0 5.3c-.5 0-.9-.2-1.2-.5-.3-.3-.5-.8-.5-1.2 0-.9.8-1.7 1.7-1.7.9 0 1.7.8 1.7 1.7 0 .5-.2.9-.5 1.2-.3.3-.7.5-1.2.5zM27.2 16c0 .7.5 1.2 1.2 1.2.3 0 .6-.1.9-.4.2-.2.4-.5.4-.9 0-.7-.5-1.2-1.2-1.2-.8.1-1.3.6-1.3 1.3zm12.4 1.7c-.9 0-1.7-.8-1.7-1.7 0-.5.2-.9.5-1.2s.8-.5 1.2-.5c.5 0 .9.2 1.2.5.3.3.5.8.5 1.2.1.9-.7 1.6-1.7 1.7.1 0 0 0 0 0zm0-3c-.3 0-.6.1-.9.4-.2.2-.4.5-.4.9 0 .7.5 1.2 1.2 1.2s1.2-.5 1.2-1.2c.2-.7-.4-1.3-1.1-1.3z"/><path class="st0" d="M17.2 44.2c-.4-.4-.8-1.2-1.1-2-.3-.8-.5-1.7-.4-2.3.1-1 .5-2.6.1-3.6-.7-2-2.9-3-4.9-2.3-2 .7-3 2.9-2.3 4.9.4 1.1 1.7 1.9 2.5 2.6.4.4.9 1.1 1.1 2 .3.8.5 1.7.4 2.3-.1 1-.5 2.6-.1 3.6.7 2 2.9 3 4.9 2.3 2-.7 3-2.9 2.3-4.9-.4-1.1-1.8-1.9-2.5-2.6zm-5.5-8c.8-.3 1.6.1 1.9.9.3.8-.1 1.6-.9 1.9-.8.3-1.6-.1-1.9-.9-.3-.7.1-1.6.9-1.9zm4.9 13.3c-.8.3-1.6-.1-1.9-.9-.3-.8.1-1.6.9-1.9.8-.3 1.6.1 1.9.9.3.8-.1 1.6-.9 1.9z"/><path d="M16.1 52.2c-1.7 0-3.2-1-3.8-2.7-.3-.8-.2-1.9 0-2.8 0-.3.1-.7.1-.9 0-.5-.1-1.4-.4-2.1l-.1-.2c-.3-.7-.7-1.3-1-1.7-.2-.2-.5-.4-.8-.7-.7-.6-1.5-1.2-1.8-2.1-.8-2.1.3-4.5 2.4-5.3 1-.4 2.1-.3 3.1.1 1 .5 1.7 1.3 2.1 2.3.3.8.2 1.9 0 2.8 0 .3-.1.7-.1.9 0 .5.1 1.3.4 2.1.3.9.7 1.6 1.1 1.9.2.2.5.4.8.7.7.6 1.5 1.2 1.8 2.1.4 1 .3 2.1-.1 3.1-.5 1-1.3 1.7-2.3 2.1-.5.3-.9.4-1.4.4zm-3.7-8.6c.4.9.4 1.8.4 2.3 0 .3-.1.6-.1 1-.1.9-.3 1.8 0 2.5.7 1.9 2.7 2.8 4.6 2.1.9-.3 1.6-1 2-1.9.4-.9.4-1.8.1-2.7-.3-.7-1-1.3-1.6-1.8-.3-.2-.6-.5-.8-.7-.5-.5-.9-1.3-1.2-2.1-.4-.9-.5-1.8-.5-2.3 0-.3.1-.6.1-1 .1-.9.3-1.8 0-2.5-.3-.9-1-1.6-1.9-2-.9-.4-1.8-.4-2.7-.1-1.9.7-2.8 2.7-2.1 4.6.3.7 1 1.3 1.6 1.8.3.2.6.5.8.7.5.3 1 1.1 1.3 2.1zm3.7 6.3c-.2 0-.5-.1-.7-.2-.4-.2-.7-.5-.9-1-.3-.9.1-1.9 1-2.2.4-.2.9-.1 1.3.1s.7.5.9 1c.3.9-.1 1.9-1 2.2-.2 0-.4.1-.6.1zm0-3c-.1 0-.3 0-.4.1-.6.2-.9.9-.7 1.6.1.3.3.5.6.7.3.1.6.1.9 0 .6-.2.9-.9.7-1.6-.1-.3-.3-.5-.6-.7-.2 0-.3-.1-.5-.1zm-3.9-7.6c-.7 0-1.4-.4-1.6-1.1-.3-.9.1-1.9 1-2.2.9-.3 1.9.1 2.2 1 .3.9-.1 1.9-1 2.2-.2.1-.4.1-.6.1zm-.4-2.8c-.6.2-.9.9-.7 1.6.2.6.9.9 1.6.7.6-.2.9-.9.7-1.6-.3-.6-1-1-1.6-.7z"/><path class="st1" d="M17.5 43.6c-.4-.4-.8-1.2-1.1-2-.3-.8-.5-1.7-.4-2.3.1-1 .5-2.6.1-3.6-.7-2-2.9-3-4.9-2.3-2 .7-3 2.9-2.3 4.9.4 1.1 1.7 1.9 2.5 2.6.4.4.9 1.1 1.1 2 .3.8.5 1.7.4 2.3-.1 1-.5 2.6-.1 3.6.7 2 2.9 3 4.9 2.3 2-.7 3-2.9 2.3-4.9-.4-1-1.8-1.8-2.5-2.6zm-5.6-7.9c.8-.3 1.6.1 1.9.9.3.8-.1 1.6-.9 1.9-.8.3-1.6-.1-1.9-.9-.2-.8.2-1.6.9-1.9zm5 13.3c-.8.3-1.6-.1-1.9-.9-.3-.8.1-1.6.9-1.9.8-.3 1.6.1 1.9.9.2.8-.2 1.6-.9 1.9z"/><path class="st2" d="M16.4 51.7c-1.7 0-3.2-1-3.8-2.7-.3-.8-.2-1.9 0-2.8 0-.3.1-.7.1-.9 0-.5-.1-1.4-.4-2.1l-.1-.2c-.3-.7-.7-1.3-1-1.7-.2-.2-.5-.4-.8-.7-.7-.6-1.5-1.2-1.8-2.1-.4-1-.3-2.1.1-3.1.5-1 1.3-1.7 2.3-2.1 1-.4 2.1-.3 3.1.1 1 .5 1.7 1.3 2.1 2.3.3.8.2 1.9 0 2.8 0 .3-.1.7-.1.9 0 .5.1 1.3.4 2.1.3.9.7 1.6 1.1 1.9.2.2.5.4.8.7.7.6 1.5 1.2 1.8 2.1.4 1 .3 2.1-.1 3.1-.5 1-1.3 1.7-2.3 2.1-.5.2-1 .3-1.4.3zM12.7 43c.4.9.4 1.8.4 2.3 0 .3-.1.6-.1 1-.1.9-.3 1.8 0 2.5.7 1.9 2.7 2.8 4.6 2.1.9-.3 1.6-1 2-1.9.4-.9.4-1.8.1-2.7-.3-.7-1-1.3-1.6-1.8-.3-.2-.6-.5-.8-.7-.5-.5-.9-1.3-1.2-2.1-.4-.9-.5-1.8-.5-2.3 0-.3.1-.6.1-1 .1-.9.3-1.8 0-2.5-.3-.9-1-1.6-1.9-2-.9-.4-1.8-.4-2.7-.1-.9.3-1.6 1-2 1.9-.4.9-.4 1.8-.1 2.7.3.7 1 1.3 1.6 1.8.3.2.6.5.8.7.5.4 1 1.2 1.3 2.1zm3.7 6.3c-.2 0-.5-.1-.7-.2-.4-.2-.7-.5-.9-1-.3-.9.1-1.9 1-2.2.4-.2.9-.1 1.3.1s.7.5.9 1c.3.9-.1 1.9-1 2.2-.2.1-.4.1-.6.1zm0-2.9c-.1 0-.3 0-.4.1-.6.2-.9.9-.7 1.6.1.3.3.5.6.7.3.1.6.1.9 0 .6-.2.9-.9.7-1.6-.1-.3-.3-.5-.6-.7-.2-.1-.4-.1-.5-.1zm-4-7.6c-.2 0-.5-.1-.7-.2-.4-.2-.7-.5-.9-1-.2-.4-.1-.9.1-1.3s.5-.7 1-.9c.4-.2.9-.1 1.3.1s.7.5.9 1c.3.9-.1 1.9-1 2.2-.3.1-.5.1-.7.1zm0-2.9c-.1 0-.3 0-.4.1-.3.1-.5.3-.7.6-.1.3-.1.6 0 .9.1.3.3.5.6.7.3.1.6.1.9 0 .6-.2.9-.9.7-1.6-.1-.3-.3-.5-.6-.7h-.5z"/><path class="st0" d="M23.6 35.4c0-.5.1-1.4.5-2.2.3-.8.8-1.6 1.1-2 .7-.7 2-1.6 2.4-2.7.7-2-.3-4.2-2.2-4.9-2-.7-4.2.3-4.9 2.2-.4 1.1.1 2.6.1 3.6 0 .5-.1 1.4-.4 2.3-.3.8-.8 1.6-1.2 2-.7.7-2 1.6-2.4 2.7-.7 2 .3 4.2 2.2 4.9 2 .7 4.2-.3 4.9-2.2.5-1.1 0-2.7-.1-3.7zm1-9.6c.8.3 1.1 1.1.9 1.9-.3.8-1.1 1.1-1.9.9-.8-.3-1.1-1.1-.9-1.9.3-.8 1.1-1.2 1.9-.9zM19.7 39c-.8-.3-1.1-1.1-.9-1.9.3-.8 1.1-1.1 1.9-.9.8.3 1.1 1.1.9 1.9-.3.8-1.2 1.2-1.9.9z"/><path d="M20.2 41.8c-.5 0-1-.1-1.4-.3-1-.4-1.8-1.1-2.3-2.1-.5-1-.5-2.1-.1-3.1.3-.8 1.1-1.5 1.8-2.1.3-.2.5-.4.7-.6.4-.4.8-1.1 1.1-1.9l.1-.3c.3-.7.4-1.4.3-1.9 0-.3-.1-.6-.1-1-.1-.9-.3-1.9 0-2.7.8-2.1 3.2-3.2 5.3-2.4 2.1.8 3.2 3.2 2.4 5.3-.3.8-1.1 1.5-1.8 2.1-.3.2-.5.4-.7.6-.3.3-.8 1.1-1.1 1.9-.4.8-.5 1.7-.5 2.1 0 .3.1.6.1 1 .1.9.3 1.9 0 2.7-.4 1-1.1 1.8-2.1 2.3-.6.2-1.1.4-1.7.4zm.2-10c-.3.9-.8 1.6-1.2 2-.2.2-.5.4-.7.7-.6.6-1.4 1.2-1.6 1.9-.3.9-.3 1.9.1 2.7.4.9 1.1 1.5 2 1.9.9.3 1.9.3 2.7-.1.9-.4 1.5-1.1 1.9-2 .3-.7.1-1.6 0-2.5-.1-.4-.1-.7-.1-1.1 0-.7.2-1.6.5-2.4.3-.9.8-1.7 1.2-2.1.2-.2.5-.4.7-.7.6-.6 1.4-1.2 1.6-1.9.7-1.8-.2-3.9-2.1-4.6-1.8-.7-3.9.2-4.6 2.1-.3.7-.1 1.6 0 2.5.1.4.1.7.1 1.1 0 .6-.1 1.6-.5 2.5zm-.2 7.6c-.2 0-.4 0-.6-.1-.4-.2-.8-.5-1-.9-.2-.4-.2-.9 0-1.3s.5-.8.9-1 .9-.2 1.3 0c.9.3 1.3 1.3 1 2.2-.3.7-.9 1.1-1.6 1.1zm-.4-.6c.6.2 1.3-.1 1.6-.7.2-.6-.1-1.3-.7-1.6-.3-.1-.6-.1-.9 0-.3.1-.5.4-.6.7-.1.3-.1.6 0 .9 0 .4.2.6.6.7zm4.3-9.9c-.2 0-.4 0-.6-.1-.9-.3-1.3-1.3-1-2.2.3-.9 1.3-1.3 2.2-1 .9.3 1.3 1.3 1 2.2-.2.4-.5.8-.9 1-.2 0-.5.1-.7.1zm0-3c-.5 0-1 .3-1.1.8-.2.6.1 1.3.7 1.6.3.1.6.1.9 0 .3-.1.5-.4.6-.7.2-.6-.1-1.3-.7-1.6-.1 0-.3-.1-.4-.1z"/><path class="st1" d="M23.9 34.9c0-.5.1-1.4.5-2.2.3-.8.8-1.6 1.1-2 .7-.7 2-1.6 2.4-2.7.7-2-.3-4.2-2.2-4.9-2-.7-4.2.3-4.9 2.2-.4 1.1.1 2.6.1 3.6 0 .5-.1 1.4-.4 2.3-.3.8-.8 1.6-1.2 2-.7.7-2 1.6-2.4 2.7-.7 2 .3 4.2 2.2 4.9 2 .7 4.2-.3 4.9-2.2.4-1.2-.1-2.7-.1-3.7zm1-9.6c.8.3 1.1 1.1.9 1.9-.3.8-1.1 1.1-1.9.9-.8-.3-1.1-1.1-.9-1.9.2-.8 1.1-1.2 1.9-.9zm-5 13.2c-.8-.3-1.1-1.1-.9-1.9.3-.8 1.1-1.1 1.9-.9.8.3 1.1 1.1.9 1.9-.3.8-1.1 1.2-1.9.9z"/><path class="st2" d="M20.4 41.3c-.5 0-1-.1-1.4-.3-1-.4-1.8-1.1-2.3-2.1-.5-1-.5-2.1-.1-3.1.3-.8 1.1-1.5 1.8-2.1.3-.2.5-.4.7-.6.4-.4.8-1.1 1.1-1.9l.1-.3c.3-.7.4-1.4.3-1.9 0-.3-.1-.6-.1-1-.1-.9-.3-1.9 0-2.7.4-1 1.1-1.8 2.1-2.3 1-.5 2.1-.5 3.1-.1 2.1.8 3.2 3.2 2.4 5.3-.3.8-1.1 1.5-1.8 2.1-.3.2-.5.4-.7.6-.3.3-.8 1.1-1.1 1.9-.4.8-.5 1.7-.5 2.1 0 .3.1.6.1 1 .1.9.3 1.9 0 2.7-.4 1-1.1 1.8-2.1 2.3-.4.2-1 .4-1.6.4zm.3-10c-.3.9-.8 1.6-1.2 2-.2.2-.5.4-.7.7-.6.6-1.4 1.2-1.6 1.9-.3.9-.3 1.9.1 2.7.4.9 1.1 1.5 2 1.9.9.3 1.9.3 2.7-.1.9-.4 1.5-1.1 1.9-2 .3-.7.1-1.6 0-2.5-.1-.4-.1-.7-.1-1.1 0-.7.2-1.6.5-2.4.3-.9.8-1.7 1.2-2.1.2-.2.5-.4.7-.7.6-.6 1.4-1.2 1.6-1.9.7-1.8-.2-3.9-2.1-4.6-.9-.3-1.9-.3-2.7.1-.9.4-1.5 1.1-1.9 2-.3.7-.1 1.6 0 2.5.1.4.1.7.1 1.1 0 .6-.1 1.6-.5 2.5zm-.3 7.6c-.2 0-.4 0-.6-.1-.4-.2-.8-.5-1-.9-.2-.4-.2-.9 0-1.3s.5-.8.9-1c.4-.2.9-.2 1.3 0s.8.5 1 .9c.2.4.2.9 0 1.3s-.5.8-.9 1c-.2 0-.4.1-.7.1zm-.4-.6c.3.1.6.1.9 0 .3-.1.5-.4.6-.7.1-.3.1-.6 0-.9-.1-.3-.4-.5-.7-.6-.3-.1-.6-.1-.9 0-.3.1-.5.4-.6.7-.1.3-.1.6 0 .9.2.3.4.5.7.6zm4.3-9.9c-.2 0-.4 0-.6-.1-.4-.2-.8-.5-1-.9-.2-.4-.2-.9 0-1.3s.5-.8.9-1c.4-.2.9-.2 1.3 0s.8.5 1 .9c.2.4.2.9 0 1.3-.2.6-.9 1.1-1.6 1.1zm0-3c-.2 0-.3 0-.5.1-.3.1-.5.4-.6.7-.1.3-.1.6 0 .9.1.3.4.5.7.6.6.2 1.3-.1 1.6-.7.1-.3.1-.6 0-.9-.1-.3-.4-.5-.7-.6-.2-.1-.3-.1-.5-.1zm49.6-17h2.3l-6.1 15.1h-1.6l-6-15.1h2.4l4.5 11.3 4.5-11.3zm4.9 12.9h7v2.2h-9.2V8.4h9.2v2.2h-7v4.2h6.8V17h-6.8v4.3zm10.1 0H96v2.2h-9.3V8.4h2.2v12.9zm8.3-10.8c1.4-1.4 3.3-2.3 5.4-2.3 2.1 0 4.1.9 5.5 2.3 1.4 1.4 2.2 3.3 2.2 5.5 0 2.1-.9 4.1-2.2 5.5-1.4 1.4-3.3 2.3-5.5 2.3-2.1 0-4.1-.9-5.4-2.3-1.4-1.4-2.2-3.3-2.2-5.5-.1-2.2.8-4.1 2.2-5.5zm9.3 1.6c-1-1-2.4-1.6-3.9-1.6s-2.9.6-3.9 1.6-1.6 2.4-1.6 3.9.6 2.9 1.6 3.9 2.4 1.6 3.9 1.6 2.9-.6 3.9-1.6 1.6-2.4 1.6-3.9-.6-2.9-1.6-3.9zm10.6-3.7c3.3 0 4.9 2.5 4.9 5s-1.6 5-4.9 5h-3.3v5h-2.2v-15h5.5zm0 7.9c1.8 0 2.7-1.4 2.7-2.8s-.9-2.9-2.7-2.9h-3.3v5.7h3.3zm8 5h7.1v2.2H123V8.4h2.2v12.9zm7.4-2.3V8.4h2.2V19c0 1.7 1.8 2.5 3.4 2.5 1.6 0 3.4-.8 3.4-2.5V8.4h2.2V19c0 3.1-3 4.7-5.6 4.7-2.6 0-5.6-1.6-5.6-4.7zm20.9-6.7c-.3-1.4-1.8-1.9-3.1-1.9-1 0-2.1.4-2.7 1.1-.3.4-.4.9-.4 1.4.1 1.6 1.8 1.7 3.4 1.9 2.1.3 4.6.8 5.2 3.2.1.3.1.7.1 1 0 2.9-2.9 4.6-5.6 4.6-2.3 0-5.2-1.4-5.4-4.1v-.4h2.2v.3-.1c.2 1.4 1.9 2.1 3.3 2.1 1.6 0 3.4-.9 3.4-2.5 0-.2 0-.3-.1-.5-.3-1.1-1.8-1.3-3.3-1.5-2.4-.2-5.1-.8-5.3-3.9-.1-1 .2-2 .8-2.9 1-1.3 2.8-2 4.6-2 2.3 0 4.7 1.2 5.1 4l-2.2.2z"/></svg>